<svg id="Layer_1" data-name="Layer 1" xmlns="http://www.w3.org/2000/svg" width="8.5in" height="10.89in" viewBox="0 0 611.98 784.11">
  <defs>
    <style>
      .cls-1, .cls-3 {
        fill: none;
        stroke-linecap: square;
        stroke-miterlimit: 10.01;
        stroke-width: 0.75px;
      }

      .cls-1 {
        stroke: #010101;
      }

      .cls-2 {
        fill: #a8d38c;
      }

      .cls-3 {
        stroke: #221f1f;
      }
    </style>
  </defs>
  <polygon class="cls-1" points="409.62 434.21 413.13 435.96 414.89 435.96 416.64 435.96 418.4 435.96 421.91 435.96 423.67 434.21 425.43 432.45 427.18 432.45 434.21 425.43 437.72 423.67 439.48 421.91 439.48 421.91 441.24 420.16 441.24 418.4 441.24 416.64 439.48 414.89 439.48 414.89 441.24 413.13 444.75 411.38 448.26 411.38 451.77 411.38 453.53 411.38 455.29 409.62 458.8 407.86 458.8 407.86 458.8 406.11 457.04 404.35 457.04 402.59 457.04 400.84 457.04 399.08 458.8 397.32 458.8 397.32 462.31 393.81 462.31 392.06 464.07 390.3 465.82 390.3 469.34 388.54 481.63 385.03 483.39 385.03 485.14 385.03 486.9 383.27 488.66 379.76 490.41 379.76 490.41 378 490.41 378 490.41 374.49 490.41 365.71 490.41 362.2 492.17 360.44 492.17 356.93 492.17 355.17 493.93 355.17 493.93 355.17 495.68 356.93 497.44 355.17 499.2 355.17 499.2 353.41 499.2 353.41 500.95 355.17 502.71 355.17 504.46 356.93 504.46 358.68 507.98 365.71 507.98 367.46 509.74 369.22 509.74 369.22 511.49 370.98 513.25 372.73 515 370.98 515 372.73 516.76 374.49 515 376.25 515 378 513.25 379.76 511.49 381.52 509.74 381.52 507.98 385.03 506.22 383.27 506.22 385.03 506.22 386.79 504.46 388.54 502.71 390.3 500.95 392.06 499.2 393.81 499.2 395.57 499.2 397.32 497.44 400.84 497.44 404.35 499.2 406.11 497.44 407.86 497.44 407.86 497.44 409.62 499.2 409.62 500.95 409.62 500.95 411.38 502.71 413.13 502.71 413.13 504.46 413.13 506.22 413.13 506.22 409.62 506.22 409.62 506.22 409.62 506.22 413.13 506.22 413.13 502.71 414.89 502.71 416.64 500.95 414.89 500.95 414.89 499.2 416.64 497.44 414.89 497.44 414.89 497.44 416.64 497.44 418.4 495.68 420.16 493.93 420.16 493.93 421.91 490.41 421.91 486.9 423.67 485.14 425.43 483.39 425.43 481.63 428.94 479.88 430.7 479.88 432.45 478.12 434.21 479.88 434.21 481.63 434.21 481.63 435.96 481.63 439.48 479.88 442.99 479.88 444.75 479.88 446.5 478.12 448.26 478.12 448.26 476.36 450.02 476.36 448.26 474.61 446.5 472.85 446.5 472.85 444.75 472.85 446.5 472.85 448.26 474.61 450.02 474.61 450.02 476.36 451.77 476.36 453.53 478.12 455.29 478.12 455.29 478.12 457.04 478.12 458.8 476.36 462.31 476.36 464.07 476.36 467.58 476.36 469.34 474.61 469.34 474.61 469.34 474.61 467.58 474.61 462.31 474.61 460.56 472.85 460.56 472.85 460.56 472.85 458.8 471.09 458.8 469.34 457.04 469.34 457.04 469.34 448.26 469.34 446.5 469.34 446.5 467.58 448.26 465.82 448.26 465.82 450.02 465.82 451.77 465.82 455.29 467.58 457.04 467.58 458.8 467.58 460.56 467.58 460.56 465.82 460.56 464.07 460.56 465.82 460.56 467.58 462.31 469.34 462.31 469.34 464.07 471.09 469.34 471.09 471.09 472.85 471.09 474.61 472.85 474.61 474.61 476.36 474.61 478.12 478.12 478.12 481.63 479.88 481.63 479.88 483.39 479.88 481.63 478.12 479.88 478.12 479.88 476.36 479.88 474.61 481.63 471.09 481.63 471.09 483.39 471.09 483.39 472.85 483.39 476.36 481.63 478.12 481.63 478.12 483.39 478.12 485.14 478.12 486.9 476.36 488.66 474.61 488.66 474.61 488.66 472.85 490.41 472.85 492.17 471.09 492.17 472.85 492.17 474.61 492.17 476.36 492.17 474.61 492.17 474.61 493.93 474.61 495.68 472.85 495.68 471.09 495.68 469.34 497.44 467.58 499.2 465.82 502.71 465.82 502.71 464.07 504.46 462.31 506.22 460.56 506.22 458.8 507.98 457.04 509.74 457.04 511.49 455.29 513.25 453.53 516.76 453.53 518.52 451.77 520.27 446.5 525.54 444.75 527.3 442.99 529.05 442.99 530.81 442.99 532.57 441.24 537.84 441.24 539.59 441.24 541.35 441.24 544.86 442.99 546.62 442.99 548.38 444.75 551.89 446.5 553.64 446.5 557.16 448.26 558.91 450.02 560.67 451.77 562.43 451.77 562.43 451.77 564.18 451.77 565.94 453.53 567.7 453.53 569.45 457.04 574.72 457.04 576.48 458.8 578.24 458.8 578.24 458.8 579.99 458.8 587.02 458.8 588.77 458.8 590.53 458.8 592.29 457.04 594.04 455.29 595.8 455.29 597.55 453.53 597.55 451.77 597.55 451.77 597.55 450.02 595.8 450.02 594.04 448.26 592.29 446.5 590.53 444.75 588.77 442.99 587.02 441.24 585.26 441.24 581.75 439.48 581.75 437.72 579.99 435.96 576.48 435.96 572.97 435.96 571.21 435.96 571.21 435.96 571.21 434.21 572.97 434.21 572.97 434.21 571.21 434.21 569.45 434.21 565.94 434.21 564.18 434.21 562.43 432.45 562.43 432.45 560.67 430.7 560.67 428.94 558.91 428.94 558.91 427.18 557.16 425.43 555.4 423.67 551.89 421.91 551.89 418.4 551.89 413.13 555.4 411.38 557.16 409.62 557.16 409.62 555.4 409.62 553.64 407.86 553.64 407.86 551.89 406.11 551.89 404.35 551.89 402.59 550.13 400.84 550.13 397.32 550.13 390.3 551.89 388.54 551.89 388.54 551.89 388.54 551.89 386.79 550.13 386.79 548.38 386.79 550.13 385.03 551.89 383.27 551.89 378 551.89 378 551.89 376.25 551.89 374.49 553.64 372.73 553.64 372.73 553.64 369.22 551.89 367.46 551.89 367.46 551.89 367.46 555.4 367.46 555.4 367.46 557.16 370.98 557.16 374.49 555.4 376.25 555.4 376.25 557.16 374.49 558.91 374.49 558.91 374.49 560.67 374.49 560.67 374.49 562.43 378 564.18 378 564.18 378 565.94 376.25 564.18 374.49 564.18 372.73 564.18 372.73 564.18 370.98 564.18 369.22 565.94 365.71 565.94 362.2 565.94 360.44 565.94 360.44 564.18 358.68 562.43 356.93 560.67 355.17 560.67 355.17 558.91 353.41 560.67 353.41 560.67 351.66 562.43 349.9 560.67 346.39 560.67 344.63 560.67 342.88 558.91 341.12 560.67 337.61 560.67 334.09 562.43 332.34 564.18 330.58 564.18 330.58 564.18 330.58 560.67 330.58 560.67 328.82 560.67 327.07 562.43 327.07 562.43 328.82 565.94 328.82 565.94 328.82 567.7 325.31 569.45 325.31 571.21 323.56 571.21 321.8 571.21 320.04 571.21 318.29 572.97 316.53 574.72 311.26 579.99 309.5 581.75 307.75 583.5 307.75 585.26 307.75 587.02 307.75 588.77 307.75 590.53 309.5 594.04 309.5 595.8 309.5 599.31 311.26 601.07 309.5 601.07 307.75 599.31 304.23 599.31 300.72 597.55 297.21 597.55 295.45 595.8 293.7 595.8 293.7 595.8 291.94 594.04 291.94 592.29 290.18 590.53 290.18 590.53 290.18 587.02 288.43 583.5 286.67 581.75 284.91 579.99 283.16 578.24 281.4 574.72 281.4 572.97 279.64 571.21 279.64 569.45 279.64 567.7 277.89 565.94 276.13 564.18 274.38 562.43 272.62 560.67 272.62 560.67 270.86 558.91 267.35 558.91 265.59 558.91 262.08 558.91 262.08 560.67 258.57 565.94 258.57 567.7 255.06 567.7 253.3 565.94 251.54 565.94 248.03 560.67 246.27 560.67 246.27 558.91 244.52 557.16 244.52 551.89 244.52 550.13 242.76 550.13 242.76 548.38 239.25 546.62 237.49 544.86 235.73 541.35 233.98 539.59 232.22 537.84 230.47 537.84 230.47 537.84 221.68 536.08 218.17 536.08 218.17 536.08 216.41 537.84 216.41 539.59 214.66 539.59 212.9 539.59 209.39 539.59 198.85 537.84 195.34 537.84 193.58 537.84 191.82 536.08 191.82 536.08 184.8 532.57 181.29 529.05 177.77 527.3 174.26 525.54 170.75 522.03 167.23 520.27 165.48 518.52 165.48 518.52 163.72 516.76 161.97 516.76 160.21 516.76 151.43 516.76 147.91 515 146.16 515 146.16 515 146.16 513.25 144.4 507.98 144.4 504.46 142.65 502.71 142.65 502.71 140.89 500.95 139.13 500.95 139.13 499.2 139.13 499.2 139.13 497.44 139.13 495.68 137.38 495.68 135.62 495.68 133.86 493.93 132.11 493.93 125.08 488.66 123.32 486.9 123.32 485.14 123.32 485.14 123.32 483.39 125.08 481.63 123.32 479.88 123.32 478.12 121.57 474.61 121.57 472.85 121.57 471.09 119.81 469.34 119.81 467.58 118.06 465.82 118.06 464.07 118.06 462.31 118.06 458.8 119.81 457.04 118.06 457.04 116.3 455.29 116.3 453.53 116.3 451.77 116.3 448.26 116.3 448.26 116.3 448.26 118.06 450.02 118.06 451.77 118.06 451.77 118.06 450.02 118.06 446.5 118.06 446.5 119.81 446.5 119.81 444.75 119.81 444.75 118.06 442.99 118.06 444.75 118.06 446.5 116.3 446.5 114.54 444.75 114.54 442.99 114.54 442.99 114.54 441.24 114.54 439.48 112.79 434.21 111.03 432.45 112.79 430.7 112.79 427.18 112.79 425.43 112.79 423.67 111.03 418.4 111.03 416.64 111.03 414.89 112.79 414.89 116.3 407.86 116.3 406.11 118.06 404.35 118.06 402.59 118.06 400.84 118.06 397.32 118.06 392.06 118.06 390.3 118.06 390.3 119.81 388.54 119.81 386.79 121.57 385.03 123.32 383.27 125.08 381.52 125.08 379.76 126.84 376.25 128.59 372.73 128.59 370.98 130.35 369.22 130.35 367.46 132.11 365.71 133.86 363.95 133.86 362.2 133.86 358.68 133.86 358.68 135.62 358.68 137.38 360.44 139.13 360.44 139.13 360.44 139.13 358.68 135.62 356.93 135.62 356.93 135.62 355.17 135.62 351.66 135.62 349.9 137.38 349.9 137.38 346.39 137.38 342.88 137.38 337.61 137.38 335.85 137.38 334.09 139.13 334.09 139.13 334.09 140.89 335.85 142.65 337.61 144.4 339.36 146.16 339.36 147.91 341.12 147.91 342.88 149.67 344.63 147.91 344.63 146.16 346.39 144.4 348.14 146.16 346.39 147.91 346.39 147.91 346.39 147.91 348.14 149.67 346.39 151.43 344.63 151.43 344.63 151.43 342.88 151.43 339.36 151.43 339.36 153.18 337.61 153.18 337.61 151.43 334.09 151.43 332.34 153.18 332.34 156.7 334.09 168.99 339.36 174.26 341.12 179.53 342.88 184.8 346.39 190.07 348.14 193.58 348.14 195.34 348.14 198.85 349.9 200.61 349.9 221.68 355.17 225.2 356.93 226.95 356.93 230.47 358.68 232.22 358.68 235.73 358.68 239.25 360.44 242.76 360.44 246.27 360.44 251.54 362.2 256.81 362.2 260.32 363.95 265.59 363.95 269.11 363.95 272.62 365.71 276.13 365.71 279.64 365.71 283.16 365.71 288.43 367.46 293.7 367.46 297.21 367.46 302.48 367.46 307.75 367.46 311.26 367.46 316.53 367.46 321.8 367.46 323.56 367.46 325.31 367.46 325.31 365.71 327.07 363.95 327.07 365.71 328.82 369.22 328.82 369.22 328.82 370.98 330.58 370.98 334.09 370.98 337.61 372.73 339.36 370.98 341.12 370.98 341.12 372.73 342.88 372.73 348.14 376.25 349.9 376.25 349.9 378 351.66 376.25 353.41 376.25 356.93 376.25 358.68 376.25 360.44 378 358.68 378 356.93 379.76 355.17 381.52 353.41 383.27 348.14 388.54 346.39 390.3 346.39 392.06 348.14 392.06 349.9 390.3 351.66 388.54 353.41 388.54 355.17 388.54 355.17 392.06 356.93 392.06 356.93 392.06 360.44 390.3 363.95 388.54 365.71 386.79 367.46 385.03 369.22 383.27 370.98 381.52 372.73 381.52 374.49 381.52 374.49 381.52 372.73 383.27 370.98 385.03 370.98 385.03 370.98 386.79 370.98 388.54 370.98 388.54 372.73 388.54 374.49 388.54 374.49 388.54 376.25 390.3 378 392.06 379.76 392.06 381.52 392.06 383.27 392.06 385.03 390.3 386.79 388.54 390.3 386.79 392.06 386.79 392.06 386.79 393.81 386.79 393.81 388.54 393.81 388.54 397.32 388.54 399.08 388.54 399.08 390.3 400.84 392.06 400.84 392.06 400.84 393.81 399.08 393.81 395.57 393.81 392.06 393.81 390.3 395.57 386.79 395.57 385.03 397.32 381.52 397.32 381.52 397.32 379.76 399.08 379.76 400.84 378 406.11 376.25 409.62 374.49 409.62 376.25 409.62 379.76 407.86 379.76 406.11 379.76 407.86 378 414.89 376.25 421.91 376.25 421.91 376.25 423.67 376.25 425.43 376.25 427.18 378 432.45 378 434.21 379.76 435.96 379.76 437.72 381.52 439.48 383.27 437.72 386.79 435.96 388.54 432.45 388.54 430.7 388.54 427.18 388.54 425.43 388.54 423.67 386.79 416.64 386.79 414.89 385.03 414.89 386.79 411.38 386.79 409.62 388.54 406.11 388.54 404.35 390.3 404.35 392.06 402.59 393.81 400.84 393.81 399.08 395.57 397.32 395.57 397.32 397.32 397.32 399.08 397.32 400.84 397.32 402.59 397.32 404.35 399.08 406.11 400.84 406.11 400.84 407.86 402.59 407.86 404.35 407.86 407.86 406.11 411.38 404.35 414.89 404.35 416.64 404.35 416.64 406.11 414.89 407.86 413.13 409.62 411.38 411.38 411.38 411.38 411.38 413.13 414.89 414.89 418.4 416.64 420.16 414.89 421.91 414.89 423.67 413.13 428.94 413.13 432.45 411.38 432.45 409.62 434.21 409.62 434.21"/>
  <polygon class="cls-1" points="186.56 98.73 188.31 102.25 190.07 104 190.07 105.76 190.07 105.76 191.82 111.03 191.82 114.54 193.58 118.06 193.58 118.06 195.34 118.06 195.34 116.3 197.09 116.3 198.85 114.54 198.85 114.54 200.61 114.54 204.12 116.3 204.12 116.3 204.12 119.81 205.88 119.81 205.88 119.81 207.63 119.81 209.39 118.06 211.15 119.81 218.17 119.81 219.93 119.81 219.93 119.81 219.93 121.57 218.17 123.32 218.17 123.32 219.93 123.32 221.68 125.08 223.44 123.32 225.2 121.57 226.95 121.57 226.95 119.81 226.95 121.57 226.95 123.32 228.71 125.08 228.71 126.84 226.95 130.35 226.95 132.11 228.71 135.62 228.71 135.62 230.47 135.62 232.22 132.11 233.98 132.11 233.98 132.11 232.22 135.62 230.47 137.38 232.22 137.38 233.98 139.13 233.98 137.38 235.73 135.62 237.49 135.62 237.49 135.62 241 137.38 242.76 140.89 244.52 144.4 246.27 146.16 248.03 147.91 249.79 149.67 251.54 151.43 253.3 153.18 255.06 154.94 256.81 154.94 258.57 156.7 260.32 158.45 260.32 160.21 260.32 161.97 260.32 161.97 258.57 161.97 256.81 161.97 255.06 163.72 255.06 165.48 255.06 165.48 256.81 165.48 258.57 167.23 260.32 168.99 262.08 168.99 263.84 168.99 270.86 168.99 272.62 168.99 274.38 170.75 277.89 174.26 279.64 176.02 279.64 176.02 281.4 172.5 281.4 172.5 281.4 170.75 277.89 168.99 277.89 168.99 277.89 168.99 279.64 167.23 281.4 165.48 283.16 165.48 288.43 165.48 290.18 165.48 291.94 167.23 291.94 168.99 293.7 170.75 295.45 172.5 295.45 172.5 302.48 177.77 304.23 179.53 307.75 179.53 307.75 181.29 309.5 181.29 311.26 181.29 313.02 181.29 314.77 179.53 314.77 177.77 314.77 174.26 316.53 174.26 316.53 172.5 318.29 170.75 316.53 170.75 313.02 167.23 311.26 167.23 313.02 165.48 314.77 165.48 316.53 163.72 316.53 161.97 318.29 160.21 318.29 158.45 318.29 160.21 320.04 161.97 321.8 161.97 323.56 163.72 323.56 165.48 325.31 168.99 325.31 170.75 325.31 170.75 321.8 172.5 321.8 174.26 321.8 176.02 321.8 177.77 321.8 179.53 321.8 179.53 323.56 181.29 325.31 183.04 325.31 181.29 325.31 179.53 327.07 177.77 327.07 177.77 328.82 176.02 330.58 174.26 330.58 172.5 330.58 170.75 328.82 168.99 328.82 167.23 330.58 167.23 330.58 165.48 332.34 163.72 330.58 163.72 328.82 161.97 327.07 160.21 325.31 158.45 325.31 158.45 323.56 154.94 321.8 153.18 323.56 151.43 325.31 144.4 325.31 144.4 325.31 142.65 327.07 140.89 328.82 140.89 328.82 139.13 328.82 135.62 328.82 133.86 328.82 130.35 328.82 128.59 328.82 125.08 327.07 123.32 327.07 119.81 328.82 118.06 328.82 118.06 332.34 116.3 334.09 116.3 335.85 116.3 339.36 118.06 342.88 118.06 341.12 119.81 341.12 121.57 339.36 126.84 337.61 130.35 337.61 130.35 334.09 130.35 332.34 130.35 332.34 132.11 332.34 132.11 332.34 133.86 334.09 135.62 332.34 137.38 330.58 139.13 332.34 139.13 332.34 142.65 339.36 151.43 339.36 154.94 341.12 154.94 339.36 156.7 337.61 158.45 337.61 160.21 339.36 161.97 339.36 161.97 341.12 161.97 341.12 163.72 342.88 163.72 344.63 168.99 346.39 170.75 346.39 170.75 348.14 165.48 349.9 165.48 349.9 165.48 351.66 167.23 353.41 168.99 353.41 170.75 353.41 176.02 353.41 177.77 353.41 179.53 355.17 181.29 356.93 183.04 356.93 183.04 358.68 183.04 360.44 181.29 360.44 181.29 358.68 177.77 360.44 176.02 362.2 174.26 362.2 172.5 362.2 170.75 360.44 161.97 360.44 158.45 360.44 156.7 362.2 156.7 363.95 156.7 365.71 156.7 367.46 156.7 369.22 156.7 369.22 158.45 370.98 160.21 370.98 160.21 374.49 160.21 376.25 160.21 376.25 161.97 376.25 165.48 376.25 167.23 374.49 168.99 372.73 170.75 374.49 172.5 374.49 174.26 374.49 176.02 376.25 176.02 378 176.02 379.76 177.77 379.76 177.77 379.76 179.53 379.76 181.29 379.76 183.04 378 183.04 378 184.8 374.49 190.07 372.73 191.82 372.73 193.58 370.98 191.82 367.46 191.82 367.46 191.82 365.71 190.07 363.95 190.07 363.95 190.07 360.44 190.07 360.44 191.82 360.44 191.82 362.2 193.58 363.95 193.58 362.2 195.34 360.44 200.61 360.44 200.61 360.44 204.12 360.44 205.88 360.44 207.63 360.44 209.39 356.93 214.66 356.93 216.41 355.17 216.41 353.41 216.41 349.9 218.17 348.14 218.17 348.14 219.93 346.39 221.68 346.39 223.44 346.39 225.2 346.39 226.95 346.39 228.71 344.63 228.71 339.36 232.22 337.61 232.22 337.61 233.98 337.61 235.73 337.61 237.49 337.61 237.49 335.85 239.25 334.09 241 332.34 244.52 330.58 246.27 330.58 249.79 328.82 253.3 328.82 256.81 328.82 258.57 328.82 262.08 328.82 263.84 328.82 267.35 328.82 269.11 328.82 270.86 328.82 270.86 330.58 270.86 332.34 270.86 334.09 270.86 335.85 270.86 335.85 270.86 337.61 272.62 337.61 274.38 337.61 276.13 339.36 277.89 339.36 279.64 339.36 281.4 339.36 283.16 341.12 284.91 341.12 286.67 341.12 288.43 341.12 288.43 342.88 288.43 346.39 284.91 348.14 284.91 349.9 286.67 356.93 288.43 362.2 291.94 362.2 291.94 363.95 291.94 365.71 293.7 367.46 295.45 369.22 297.21 372.73 297.21 376.25 298.96 378 298.96 379.76 300.72 381.52 302.48 383.27 302.48 385.03 300.72 390.3 300.72 392.06 300.72 393.81 300.72 395.57 300.72 397.32 300.72 399.08 302.48 399.08 304.23 397.32 307.75 397.32 309.5 399.08 311.26 400.84 313.02 400.84 314.77 400.84 320.04 400.84 321.8 402.59 323.56 404.35 325.31 411.38 332.34 413.13 334.09 414.89 335.85 416.64 337.61 418.4 337.61 420.16 337.61 420.16 337.61 420.16 337.61 418.4 335.85 418.4 334.09 420.16 332.34 421.91 330.58 423.67 327.07 425.43 325.31 423.67 323.56 421.91 321.8 421.91 321.8 420.16 320.04 420.16 318.29 418.4 313.02 418.4 311.26 418.4 309.5 414.89 304.23 413.13 302.48 414.89 300.72 418.4 297.21 420.16 297.21 420.16 295.45 421.91 291.94 423.67 288.43 425.43 286.67 425.43 284.91 425.43 283.16 423.67 281.4 423.67 279.64 423.67 279.64 421.91 276.13 421.91 274.38 420.16 270.86 418.4 269.11 416.64 265.59 416.64 263.84 414.89 263.84 413.13 263.84 411.38 262.08 409.62 262.08 409.62 260.32 409.62 260.32 409.62 256.81 409.62 256.81 411.38 255.06 413.13 253.3 413.13 251.54 413.13 251.54 413.13 249.79 411.38 244.52 409.62 242.76 409.62 242.76 407.86 241 407.86 241 407.86 239.25 407.86 233.98 407.86 232.22 406.11 230.47 404.35 230.47 404.35 228.71 404.35 226.95 402.59 225.2 404.35 225.2 404.35 223.44 406.11 223.44 407.86 223.44 413.13 223.44 414.89 223.44 418.4 221.68 420.16 219.93 421.91 218.17 425.43 219.93 432.45 221.68 434.21 223.44 434.21 223.44 434.21 223.44 434.21 226.95 434.21 226.95 435.96 226.95 439.48 228.71 441.24 226.95 442.99 226.95 444.75 226.95 444.75 225.2 446.5 226.95 446.5 228.71 446.5 230.47 448.26 232.22 450.02 233.98 450.02 237.49 451.77 239.25 451.77 241 451.77 242.76 453.53 244.52 455.29 244.52 457.04 244.52 458.8 244.52 458.8 244.52 462.31 248.03 464.07 248.03 464.07 248.03 465.82 244.52 467.58 244.52 467.58 242.76 467.58 241 469.34 237.49 471.09 235.73 471.09 233.98 471.09 232.22 469.34 230.47 467.58 228.71 467.58 228.71 469.34 223.44 469.34 221.68 471.09 223.44 476.36 226.95 490.41 237.49 492.17 239.25 492.17 239.25 493.93 239.25 493.93 241 495.68 242.76 497.44 242.76 499.2 242.76 499.2 244.52 499.2 246.27 499.2 248.03 499.2 249.79 499.2 251.54 500.95 251.54 502.71 253.3 504.46 253.3 506.22 253.3 509.74 253.3 509.74 255.06 511.49 256.81 511.49 256.81 513.25 256.81 516.76 255.06 518.52 255.06 520.27 256.81 522.03 256.81 522.03 256.81 525.54 255.06 525.54 255.06 529.05 256.81 529.05 256.81 529.05 256.81 529.05 260.32 527.3 262.08 527.3 262.08 529.05 262.08 532.57 260.32 532.57 258.57 532.57 260.32 534.32 262.08 534.32 263.84 536.08 262.08 537.84 260.32 539.59 260.32 541.35 262.08 543.11 262.08 544.86 263.84 544.86 263.84 546.62 265.59 546.62 267.35 548.38 269.11 550.13 270.86 551.89 272.62 550.13 272.62 550.13 276.13 548.38 279.64 548.38 281.4 546.62 281.4 546.62 283.16 543.11 286.67 541.35 288.43 541.35 290.18 539.59 290.18 539.59 291.94 539.59 293.7 537.84 300.72 537.84 302.48 537.84 304.23 536.08 304.23 536.08 305.99 530.81 307.75 529.05 309.5 529.05 309.5 527.3 309.5 525.54 309.5 522.03 311.26 518.52 311.26 516.76 313.02 515 313.02 511.49 314.77 507.98 316.53 506.22 318.29 502.71 320.04 502.71 321.8 500.95 321.8 499.2 323.56 499.2 325.31 499.2 325.31 499.2 327.07 499.2 328.82 499.2 330.58 499.2 332.34 497.44 332.34 495.68 332.34 495.68 334.09 493.93 335.85 492.17 339.36 490.41 341.12 490.41 342.88 488.66 346.39 488.66 348.14 485.14 356.93 483.39 362.2 483.39 363.95 483.39 363.95 485.14 362.2 486.9 362.2 486.9 360.44 486.9 358.68 490.41 353.41 490.41 349.9 490.41 348.14 492.17 346.39 493.93 342.88 495.68 341.12 497.44 339.36 499.2 337.61 500.95 335.85 502.71 334.09 502.71 332.34 504.46 330.58 507.98 330.58 509.74 328.82 511.49 327.07 513.25 327.07 513.25 327.07 515 327.07 516.76 327.07 518.52 328.82 518.52 328.82 520.27 330.58 520.27 332.34 518.52 334.09 516.76 337.61 515 339.36 513.25 339.36 509.74 341.12 509.74 341.12 511.49 342.88 515 344.63 515 344.63 516.76 344.63 518.52 341.12 520.27 341.12 520.27 341.12 520.27 342.88 520.27 344.63 520.27 346.39 522.03 349.9 523.79 351.66 525.54 353.41 525.54 353.41 527.3 355.17 529.05 355.17 530.81 355.17 534.32 355.17 537.84 355.17 539.59 355.17 541.35 355.17 543.11 353.41 544.86 351.66 546.62 349.9 546.62 349.9 548.38 349.9 548.38 349.9 546.62 348.14 546.62 346.39 546.62 344.63 548.38 339.36 548.38 335.85 550.13 335.85 550.13 335.85 550.13 337.61 551.89 341.12 551.89 341.12 553.64 341.12 555.4 342.88 557.16 342.88 557.16 344.63 555.4 346.39 555.4 348.14 553.64 349.9 551.89 351.66 551.89 353.41 551.89 355.17 551.89 356.93 548.38 358.68 543.11 365.71 541.35 367.46 539.59 369.22 537.84 369.22 536.08 370.98 536.08 370.98 536.08 372.73 536.08 374.49 534.32 378 532.57 381.52 530.81 383.27 530.81 383.27 529.05 383.27 527.3 383.27 525.54 381.52 525.54 378 523.79 378 525.54 376.25 525.54 374.49 525.54 372.73 525.54 372.73 529.05 367.46 530.81 363.95 532.57 362.2 530.81 362.2 529.05 363.95 529.05 363.95 529.05 363.95 527.3 362.2 527.3 360.44 527.3 362.2 523.79 365.71 522.03 367.46 520.27 369.22 518.52 369.22 516.76 370.98 515 370.98 513.25 370.98 513.25 372.73 511.49 370.98 511.49 370.98 509.74 369.22 509.74 369.22 507.98 367.46 507.98 365.71 504.46 358.68 504.46 356.93 502.71 355.17 500.95 355.17 499.2 353.41 499.2 353.41 499.2 355.17 497.44 355.17 495.68 356.93 493.93 355.17 493.93 355.17 492.17 355.17 492.17 356.93 492.17 360.44 490.41 362.2 490.41 365.71 490.41 374.49 490.41 378 490.41 378 490.41 379.76 488.66 379.76 486.9 383.27 485.14 385.03 483.39 385.03 481.63 385.03 469.34 388.54 465.82 390.3 464.07 390.3 462.31 392.06 462.31 392.06 460.56 393.81 460.56 395.57 458.8 397.32 457.04 399.08 455.29 400.84 453.53 400.84 453.53 402.59 451.77 404.35 451.77 404.35 450.02 404.35 448.26 404.35 446.5 404.35 444.75 406.11 439.48 409.62 437.72 409.62 435.96 411.38 434.21 414.89 434.21 414.89 435.96 414.89 437.72 414.89 439.48 414.89 439.48 414.89 441.24 416.64 441.24 418.4 439.48 418.4 435.96 418.4 434.21 420.16 432.45 420.16 430.7 421.91 430.7 421.91 428.94 421.91 425.43 423.67 423.67 423.67 423.67 423.67 421.91 425.43 421.91 425.43 421.91 427.18 420.16 428.94 418.4 430.7 416.64 430.7 414.89 430.7 413.13 430.7 413.13 432.45 413.13 430.7 413.13 427.18 414.89 421.91 416.64 420.16 416.64 418.4 418.4 418.4 420.16 416.64 420.16 414.89 420.16 413.13 420.16 411.38 420.16 407.86 420.16 404.35 420.16 400.84 420.16 399.08 420.16 399.08 420.16 399.08 421.91 400.84 423.67 400.84 425.43 402.59 428.94 402.59 428.94 402.59 430.7 400.84 430.7 399.08 430.7 399.08 427.18 395.57 423.67 392.06 421.91 390.3 421.91 390.3 418.4 390.3 414.89 390.3 411.38 390.3 407.86 390.3 404.35 390.3 400.84 390.3 399.08 390.3 397.32 390.3 395.57 386.79 395.57 385.03 393.81 383.27 395.57 381.52 395.57 379.76 393.81 379.76 392.06 378 392.06 376.25 392.06 374.49 390.3 374.49 388.54 374.49 386.79 376.25 385.03 374.49 385.03 372.73 383.27 372.73 383.27 370.98 383.27 370.98 381.52 367.46 379.76 367.46 378 367.46 376.25 367.46 374.49 367.46 372.73 367.46 370.98 365.71 370.98 367.46 369.22 369.22 369.22 369.22 367.46 370.98 363.95 372.73 362.2 374.49 362.2 376.25 360.44 378 358.68 376.25 353.41 376.25 351.66 376.25 349.9 378 349.9 376.25 348.14 376.25 342.88 372.73 341.12 372.73 341.12 370.98 337.61 370.98 335.85 372.73 334.09 370.98 332.34 370.98 330.58 370.98 328.82 370.98 328.82 369.22 327.07 367.46 327.07 365.71 327.07 363.95 325.31 365.71 325.31 367.46 323.56 367.46 321.8 367.46 314.77 367.46 309.5 367.46 302.48 367.46 297.21 367.46 290.18 367.46 284.91 365.71 277.89 365.71 272.62 365.71 265.59 363.95 260.32 363.95 255.06 362.2 251.54 362.2 246.27 360.44 242.76 360.44 239.25 360.44 235.73 358.68 232.22 358.68 228.71 358.68 226.95 356.93 223.44 356.93 221.68 355.17 198.85 349.9 193.58 348.14 190.07 348.14 188.31 346.39 186.56 346.39 184.8 344.63 181.29 344.63 165.48 337.61 156.7 334.09 153.18 332.34 151.43 332.34 151.43 330.58 151.43 330.58 149.67 328.82 151.43 327.07 153.18 325.31 153.18 323.56 151.43 325.31 149.67 325.31 147.91 325.31 147.91 325.31 146.16 321.8 142.65 314.77 142.65 313.02 142.65 311.26 139.13 309.5 137.38 305.99 135.62 304.23 133.86 300.72 133.86 298.96 132.11 297.21 133.86 295.45 133.86 293.7 133.86 291.94 132.11 290.18 133.86 288.43 133.86 286.67 133.86 284.91 133.86 283.16 132.11 281.4 132.11 279.64 130.35 276.13 130.35 272.62 130.35 270.86 128.59 267.35 128.59 265.59 130.35 263.84 130.35 262.08 130.35 262.08 132.11 262.08 133.86 262.08 133.86 260.32 133.86 258.57 135.62 256.81 139.13 253.3 140.89 251.54 140.89 248.03 142.65 244.52 142.65 244.52 142.65 241 139.13 235.73 139.13 233.98 137.38 233.98 137.38 232.22 139.13 228.71 140.89 214.66 140.89 211.15 140.89 209.39 140.89 207.63 139.13 205.88 139.13 202.36 140.89 197.09 140.89 195.34 140.89 195.34 139.13 193.58 135.62 193.58 133.86 195.34 132.11 195.34 130.35 195.34 128.59 195.34 126.84 193.58 128.59 190.07 128.59 188.31 128.59 183.04 128.59 179.53 128.59 179.53 128.59 177.77 130.35 177.77 128.59 176.02 125.08 172.5 123.32 172.5 123.32 170.75 125.08 168.99 126.84 167.23 139.13 154.94 186.56 98.73 186.56 98.73"/>
  <polygon class="cls-1" points="485.14 664.3 488.66 664.3 490.41 664.3 492.17 666.05 493.93 667.81 495.68 666.05 495.68 666.05 497.44 666.05 499.2 664.3 504.46 664.3 506.22 664.3 504.46 662.54 502.71 662.54 502.71 660.79 500.95 660.79 495.68 660.79 492.17 660.79 490.41 660.79 488.66 660.79 486.9 660.79 486.9 662.54 485.14 664.3 485.14 664.3"/>
  <polygon class="cls-1" points="437.72 632.68 439.48 634.44 439.48 636.2 439.48 636.2 442.99 634.44 444.75 634.44 442.99 634.44 441.24 630.93 439.48 630.93 439.48 630.93 437.72 632.68 437.72 632.68"/>
  <polygon class="cls-1" points="421.91 634.44 427.18 634.44 427.18 634.44 428.94 632.68 428.94 630.93 430.7 630.93 434.21 629.17 434.21 629.17 435.96 629.17 439.48 625.66 439.48 623.9 441.24 623.9 446.5 623.9 450.02 623.9 451.77 623.9 450.02 623.9 448.26 625.66 446.5 625.66 446.5 627.41 448.26 627.41 450.02 629.17 451.77 629.17 458.8 627.41 460.56 627.41 462.31 629.17 464.07 630.93 465.82 630.93 467.58 630.93 471.09 630.93 472.85 630.93 474.61 630.93 476.36 630.93 478.12 630.93 479.88 632.68 479.88 634.44 479.88 636.2 481.63 636.2 483.39 637.95 485.14 637.95 488.66 637.95 490.41 637.95 492.17 637.95 493.93 639.71 493.93 639.71 492.17 641.47 490.41 644.98 490.41 646.74 490.41 646.74 492.17 646.74 502.71 643.22 507.98 643.22 511.49 643.22 511.49 643.22 513.25 643.22 515 641.47 516.76 639.71 518.52 639.71 520.27 639.71 522.03 637.95 520.27 637.95 520.27 637.95 518.52 637.95 516.76 636.2 515 634.44 513.25 634.44 509.74 634.44 507.98 636.2 506.22 636.2 506.22 634.44 506.22 632.68 507.98 630.93 506.22 630.93 502.71 630.93 500.95 630.93 499.2 630.93 495.68 630.93 493.93 629.17 490.41 627.41 485.14 625.66 481.63 623.9 476.36 622.14 474.61 622.14 472.85 623.9 471.09 623.9 469.34 622.14 469.34 622.14 467.58 620.39 465.82 620.39 465.82 620.39 462.31 618.63 458.8 618.63 457.04 618.63 455.29 618.63 453.53 618.63 451.77 616.88 448.26 616.88 446.5 618.63 442.99 618.63 441.24 620.39 437.72 622.14 434.21 623.9 432.45 623.9 430.7 625.66 427.18 627.41 427.18 629.17 427.18 630.93 427.18 632.68 425.43 632.68 421.91 634.44 421.91 634.44"/>
  <polygon class="cls-1" points="588.77 648.49 590.53 648.49 592.29 648.49 595.8 646.74 599.31 644.98 601.07 644.98 601.07 643.22 601.07 641.47 599.31 639.71 599.31 639.71 595.8 639.71 590.53 641.47 588.77 641.47 587.02 641.47 587.02 643.22 588.77 648.49 588.77 648.49"/>
  <polygon class="cls-1" points="476.36 594.04 478.12 595.8 478.12 595.8 476.36 599.31 476.36 599.31 478.12 601.07 479.88 601.07 481.63 602.82 483.39 604.58 483.39 606.34 483.39 608.09 485.14 606.34 485.14 604.58 485.14 604.58 483.39 602.82 483.39 601.07 481.63 599.31 481.63 597.55 481.63 595.8 479.88 594.04 478.12 594.04 476.36 594.04 476.36 594.04"/>
  <polygon class="cls-1" points="523.79 629.17 527.3 629.17 529.05 629.17 529.05 627.41 529.05 625.66 529.05 623.9 529.05 623.9 529.05 625.66 529.05 627.41 527.3 627.41 525.54 625.66 525.54 625.66 525.54 627.41 523.79 629.17 523.79 629.17"/>
  <polygon class="cls-1" points="481.63 432.45 483.39 430.7 486.9 428.94 488.66 428.94 492.17 427.18 493.93 425.43 493.93 423.67 493.93 423.67 490.41 423.67 490.41 423.67 488.66 425.43 488.66 425.43 485.14 427.18 483.39 428.94 481.63 428.94 481.63 432.45 481.63 432.45"/>
  <polygon class="cls-1" points="515 320.04 518.52 320.04 518.52 320.04 520.27 321.8 522.03 321.8 523.79 321.8 525.54 321.8 529.05 320.04 532.57 320.04 532.57 320.04 532.57 318.29 530.81 318.29 529.05 316.53 527.3 316.53 525.54 316.53 522.03 316.53 518.52 318.29 515 320.04 515 320.04"/>
  <polygon class="cls-1" points="527.3 349.9 530.81 351.66 534.32 351.66 536.08 351.66 537.84 351.66 539.59 351.66 541.35 351.66 541.35 351.66 539.59 348.14 541.35 346.39 541.35 346.39 541.35 344.63 541.35 344.63 539.59 346.39 536.08 348.14 534.32 349.9 532.57 349.9 530.81 349.9 530.81 349.9 529.05 348.14 529.05 348.14 527.3 346.39 527.3 348.14 527.3 349.9 527.3 349.9"/>
  <polygon class="cls-1" points="378 232.22 381.52 232.22 383.27 230.47 383.27 228.71 385.03 226.95 385.03 225.2 385.03 225.2 385.03 225.2 383.27 225.2 381.52 226.95 379.76 226.95 379.76 228.71 378 232.22 378 232.22"/>
  <polygon class="cls-1" points="395.57 226.95 395.57 232.22 395.57 233.98 397.32 233.98 397.32 235.73 397.32 235.73 399.08 233.98 399.08 232.22 399.08 230.47 399.08 228.71 399.08 226.95 397.32 226.95 395.57 226.95 395.57 226.95"/>
  <polygon class="cls-2" points="407.86 286.67 409.62 286.67 409.62 284.91 409.62 286.67 407.86 290.18 407.86 290.18 407.86 290.18 411.38 290.18 411.38 286.67 411.38 286.67 413.13 286.67 413.13 290.18 413.13 291.94 413.13 290.18 413.13 288.43 413.13 286.67 413.13 284.91 413.13 283.16 411.38 283.16 411.38 283.16 407.86 286.67 407.86 286.67"/>
  <polygon class="cls-1" points="407.86 286.67 409.62 286.67 409.62 284.91 409.62 286.67 407.86 290.18 407.86 290.18 407.86 290.18 411.38 290.18 411.38 286.67 411.38 286.67 413.13 286.67 413.13 290.18 413.13 291.94 413.13 290.18 413.13 288.43 413.13 286.67 413.13 284.91 413.13 283.16 411.38 283.16 411.38 283.16 407.86 286.67 407.86 286.67"/>
  <polygon class="cls-1" points="402.59 321.8 407.86 323.56 409.62 323.56 409.62 321.8 409.62 321.8 407.86 320.04 407.86 320.04 406.11 320.04 404.35 320.04 402.59 321.8 402.59 321.8"/>
  <polygon class="cls-1" points="551.89 323.56 553.64 325.31 555.4 327.07 555.4 325.31 557.16 323.56 557.16 321.8 560.67 321.8 562.43 320.04 571.21 316.53 574.72 314.77 576.48 313.02 576.48 314.77 578.24 316.53 576.48 318.29 576.48 321.8 578.24 320.04 579.99 320.04 579.99 318.29 579.99 314.77 579.99 313.02 581.75 311.26 583.5 311.26 585.26 309.5 585.26 311.26 587.02 314.77 587.02 314.77 587.02 314.77 588.77 311.26 588.77 311.26 588.77 311.26 590.53 314.77 590.53 314.77 590.53 314.77 592.29 313.02 594.04 313.02 594.04 311.26 590.53 304.23 590.53 302.48 590.53 302.48 590.53 302.48 588.77 304.23 588.77 304.23 587.02 304.23 587.02 300.72 587.02 298.96 585.26 300.72 585.26 300.72 585.26 304.23 585.26 305.99 583.5 305.99 583.5 304.23 581.75 302.48 583.5 298.96 583.5 297.21 583.5 295.45 583.5 293.7 583.5 295.45 581.75 297.21 579.99 297.21 578.24 297.21 576.48 295.45 576.48 293.7 578.24 291.94 578.24 290.18 576.48 290.18 574.72 290.18 572.97 290.18 572.97 291.94 569.45 295.45 567.7 295.45 565.94 295.45 564.18 295.45 562.43 295.45 562.43 293.7 562.43 291.94 564.18 291.94 562.43 291.94 558.91 291.94 558.91 293.7 558.91 295.45 557.16 297.21 557.16 297.21 557.16 295.45 557.16 291.94 557.16 288.43 557.16 286.67 557.16 283.16 555.4 279.64 555.4 276.13 555.4 276.13 553.64 276.13 553.64 277.89 551.89 277.89 551.89 279.64 550.13 281.4 550.13 284.91 550.13 286.67 550.13 288.43 550.13 291.94 550.13 295.45 550.13 297.21 551.89 300.72 551.89 304.23 551.89 305.99 551.89 307.75 551.89 313.02 551.89 314.77 553.64 314.77 553.64 316.53 551.89 323.56 551.89 323.56"/>
  <polygon class="cls-1" points="360.44 219.93 365.71 218.17 367.46 218.17 367.46 219.93 367.46 223.44 367.46 223.44 369.22 223.44 370.98 221.68 372.73 221.68 372.73 219.93 374.49 216.41 376.25 214.66 378 214.66 379.76 212.9 381.52 214.66 385.03 216.41 386.79 218.17 388.54 216.41 390.3 214.66 390.3 212.9 390.3 212.9 388.54 212.9 385.03 211.15 385.03 209.39 383.27 207.63 381.52 205.88 379.76 205.88 370.98 200.61 369.22 198.85 369.22 198.85 369.22 197.09 367.46 195.34 367.46 195.34 367.46 195.34 365.71 197.09 363.95 198.85 363.95 200.61 363.95 202.36 363.95 205.88 363.95 209.39 363.95 211.15 363.95 212.9 365.71 214.66 363.95 216.41 360.44 219.93 360.44 219.93"/>
  <polygon class="cls-1" points="393.81 172.5 395.57 176.02 395.57 177.77 397.32 176.02 399.08 176.02 400.84 174.26 400.84 174.26 400.84 172.5 402.59 170.75 400.84 168.99 400.84 167.23 400.84 167.23 399.08 165.48 399.08 165.48 397.32 165.48 395.57 165.48 393.81 167.23 393.81 172.5 393.81 172.5"/>
  <polygon class="cls-1" points="342.88 139.13 349.9 147.91 351.66 149.67 353.41 153.18 355.17 153.18 356.93 154.94 358.68 154.94 358.68 154.94 360.44 154.94 362.2 154.94 367.46 154.94 369.22 154.94 370.98 154.94 372.73 153.18 374.49 153.18 374.49 153.18 378 154.94 379.76 156.7 381.52 154.94 381.52 153.18 383.27 151.43 383.27 149.67 383.27 147.91 385.03 149.67 385.03 151.43 386.79 151.43 390.3 153.18 392.06 153.18 393.81 154.94 393.81 156.7 393.81 160.21 395.57 161.97 395.57 161.97 397.32 158.45 397.32 156.7 399.08 158.45 399.08 160.21 400.84 161.97 402.59 161.97 406.11 161.97 406.11 163.72 407.86 163.72 407.86 165.48 411.38 168.99 411.38 170.75 411.38 174.26 407.86 181.29 407.86 183.04 407.86 183.04 407.86 184.8 411.38 186.56 411.38 188.31 411.38 188.31 409.62 190.07 409.62 191.82 407.86 193.58 404.35 193.58 400.84 193.58 399.08 193.58 397.32 193.58 397.32 195.34 397.32 197.09 395.57 198.85 395.57 200.61 395.57 202.36 395.57 202.36 397.32 204.12 397.32 205.88 399.08 205.88 400.84 205.88 402.59 205.88 404.35 204.12 406.11 202.36 407.86 200.61 409.62 200.61 413.13 200.61 414.89 200.61 418.4 202.36 421.91 202.36 423.67 204.12 425.43 204.12 425.43 205.88 427.18 207.63 428.94 207.63 430.7 209.39 430.7 209.39 434.21 209.39 435.96 209.39 437.72 209.39 439.48 209.39 441.24 209.39 441.24 211.15 444.75 211.15 446.5 211.15 448.26 211.15 455.29 211.15 457.04 211.15 455.29 209.39 455.29 207.63 453.53 205.88 453.53 205.88 444.75 202.36 442.99 200.61 439.48 200.61 437.72 198.85 437.72 197.09 437.72 198.85 439.48 198.85 442.99 198.85 450.02 200.61 451.77 200.61 453.53 200.61 455.29 198.85 457.04 198.85 458.8 197.09 458.8 197.09 457.04 195.34 457.04 191.82 457.04 191.82 455.29 190.07 453.53 190.07 451.77 188.31 450.02 186.56 450.02 184.8 448.26 184.8 446.5 183.04 441.24 181.29 441.24 181.29 439.48 181.29 437.72 179.53 437.72 177.77 435.96 177.77 434.21 174.26 434.21 172.5 434.21 170.75 434.21 170.75 434.21 170.75 437.72 170.75 439.48 170.75 441.24 172.5 442.99 174.26 446.5 176.02 448.26 177.77 451.77 177.77 451.77 177.77 451.77 176.02 451.77 172.5 451.77 172.5 451.77 170.75 453.53 168.99 453.53 165.48 453.53 160.21 451.77 156.7 451.77 156.7 448.26 156.7 446.5 156.7 442.99 154.94 441.24 154.94 437.72 154.94 435.96 153.18 434.21 153.18 434.21 151.43 432.45 153.18 428.94 153.18 427.18 154.94 427.18 154.94 423.67 153.18 421.91 153.18 421.91 151.43 420.16 149.67 420.16 147.91 421.91 147.91 423.67 146.16 423.67 144.4 421.91 144.4 420.16 142.65 418.4 142.65 418.4 142.65 418.4 140.89 416.64 139.13 416.64 137.38 414.89 135.62 413.13 135.62 409.62 133.86 407.86 133.86 404.35 132.11 400.84 130.35 399.08 128.59 397.32 128.59 395.57 128.59 393.81 130.35 392.06 130.35 392.06 128.59 388.54 123.32 388.54 121.57 388.54 123.32 386.79 123.32 385.03 125.08 383.27 123.32 379.76 123.32 378 123.32 378 123.32 376.25 125.08 376.25 126.84 374.49 128.59 372.73 128.59 370.98 130.35 370.98 130.35 370.98 132.11 370.98 130.35 370.98 128.59 370.98 126.84 369.22 125.08 367.46 123.32 367.46 121.57 367.46 119.81 367.46 118.06 367.46 118.06 365.71 116.3 365.71 116.3 363.95 116.3 363.95 116.3 362.2 116.3 360.44 118.06 360.44 119.81 356.93 123.32 356.93 125.08 355.17 126.84 355.17 128.59 356.93 130.35 356.93 132.11 356.93 135.62 358.68 137.38 358.68 139.13 358.68 139.13 356.93 137.38 355.17 135.62 355.17 133.86 353.41 130.35 353.41 126.84 353.41 125.08 355.17 123.32 355.17 119.81 356.93 119.81 358.68 118.06 358.68 118.06 358.68 118.06 356.93 118.06 353.41 118.06 351.66 118.06 349.9 119.81 348.14 121.57 348.14 121.57 346.39 123.32 346.39 125.08 346.39 125.08 344.63 126.84 344.63 128.59 344.63 130.35 344.63 133.86 344.63 137.38 342.88 139.13 342.88 139.13"/>
  <polygon class="cls-1" points="367.46 116.3 367.46 118.06 367.46 119.81 369.22 119.81 369.22 121.57 370.98 123.32 372.73 123.32 374.49 123.32 376.25 123.32 376.25 121.57 378 121.57 379.76 121.57 381.52 121.57 381.52 119.81 381.52 118.06 379.76 116.3 378 114.54 378 114.54 376.25 112.79 374.49 114.54 370.98 114.54 367.46 116.3 367.46 116.3"/>
  <polygon class="cls-1" points="325.31 107.52 330.58 109.27 332.34 111.03 332.34 109.27 332.34 107.52 332.34 105.76 332.34 104 330.58 104 330.58 102.25 328.82 102.25 328.82 102.25 327.07 104 325.31 107.52 325.31 107.52"/>
  <polygon class="cls-1" points="327.07 88.2 327.07 89.95 327.07 89.95 327.07 91.71 328.82 93.47 328.82 95.22 330.58 95.22 332.34 93.47 334.09 93.47 334.09 95.22 335.85 95.22 335.85 96.98 337.61 98.73 337.61 100.49 337.61 102.25 335.85 105.76 335.85 107.52 335.85 109.27 337.61 111.03 339.36 111.03 341.12 111.03 342.88 112.79 344.63 112.79 346.39 112.79 348.14 112.79 351.66 112.79 355.17 111.03 355.17 111.03 356.93 109.27 358.68 109.27 358.68 107.52 358.68 107.52 362.2 109.27 362.2 109.27 363.95 109.27 365.71 107.52 367.46 107.52 367.46 105.76 367.46 104 367.46 102.25 367.46 100.49 365.71 98.73 365.71 98.73 363.95 98.73 360.44 96.98 356.93 96.98 355.17 96.98 353.41 98.73 351.66 98.73 348.14 100.49 346.39 100.49 344.63 100.49 342.88 98.73 342.88 98.73 341.12 96.98 342.88 95.22 341.12 95.22 341.12 95.22 339.36 93.47 339.36 91.71 337.61 89.95 337.61 89.95 334.09 91.71 332.34 89.95 330.58 88.2 330.58 88.2 327.07 88.2 327.07 88.2"/>
  <polygon class="cls-1" points="330.58 58.34 332.34 61.85 334.09 63.61 332.34 65.36 332.34 68.88 332.34 70.63 334.09 72.39 334.09 72.39 335.85 74.14 335.85 75.9 339.36 75.9 341.12 75.9 342.88 72.39 342.88 70.63 344.63 67.12 346.39 65.36 346.39 63.61 346.39 61.85 346.39 60.09 342.88 60.09 342.88 60.09 342.88 56.58 342.88 54.82 342.88 53.07 341.12 53.07 339.36 53.07 337.61 51.31 337.61 51.31 335.85 49.55 335.85 46.04 335.85 44.29 332.34 44.29 332.34 46.04 332.34 47.8 332.34 49.55 330.58 51.31 330.58 53.07 330.58 54.82 330.58 58.34 330.58 58.34"/>
  <polygon class="cls-1" points="337.61 42.53 337.61 46.04 337.61 47.8 339.36 47.8 341.12 49.55 341.12 49.55 342.88 49.55 344.63 49.55 346.39 49.55 348.14 49.55 349.9 47.8 355.17 46.04 356.93 44.29 355.17 46.04 355.17 47.8 355.17 47.8 351.66 49.55 349.9 51.31 349.9 53.07 349.9 53.07 348.14 53.07 346.39 53.07 346.39 53.07 344.63 53.07 344.63 56.58 344.63 58.34 344.63 58.34 348.14 60.09 348.14 61.85 349.9 65.36 349.9 67.12 349.9 68.88 346.39 68.88 346.39 70.63 344.63 74.14 344.63 75.9 346.39 75.9 348.14 75.9 349.9 77.66 348.14 77.66 344.63 77.66 344.63 77.66 344.63 79.41 344.63 81.17 344.63 82.93 346.39 82.93 346.39 84.68 346.39 84.68 344.63 86.44 342.88 88.2 341.12 88.2 341.12 91.71 342.88 93.47 344.63 93.47 349.9 93.47 353.41 93.47 353.41 91.71 355.17 91.71 356.93 91.71 358.68 91.71 360.44 89.95 360.44 89.95 360.44 89.95 362.2 91.71 362.2 91.71 363.95 91.71 365.71 89.95 365.71 88.2 367.46 88.2 367.46 86.44 367.46 84.68 367.46 82.93 363.95 81.17 363.95 81.17 363.95 79.41 365.71 77.66 365.71 75.9 365.71 74.14 363.95 74.14 365.71 74.14 367.46 72.39 367.46 72.39 367.46 70.63 367.46 68.88 367.46 60.09 367.46 58.34 367.46 56.58 369.22 54.82 370.98 53.07 370.98 49.55 370.98 46.04 370.98 42.53 372.73 39.02 372.73 35.5 372.73 33.75 374.49 31.99 372.73 30.23 372.73 28.48 372.73 24.96 372.73 23.21 372.73 21.45 370.98 21.45 369.22 19.7 365.71 19.7 362.2 19.7 360.44 19.7 358.68 21.45 356.93 21.45 355.17 23.21 353.41 23.21 351.66 23.21 349.9 24.96 348.14 26.72 348.14 28.48 346.39 30.23 344.63 31.99 342.88 33.75 341.12 35.5 342.88 37.26 341.12 37.26 339.36 37.26 339.36 39.02 337.61 42.53 337.61 42.53"/>
  <polygon class="cls-1" points="321.8 58.34 325.31 60.09 325.31 60.09 325.31 58.34 325.31 56.58 323.56 54.82 323.56 56.58 321.8 58.34 321.8 58.34"/>
  <polygon class="cls-1" points="309.5 63.61 309.5 65.36 311.26 65.36 313.02 67.12 313.02 67.12 311.26 70.63 311.26 70.63 311.26 72.39 313.02 72.39 316.53 74.14 318.29 75.9 318.29 75.9 318.29 77.66 318.29 79.41 320.04 79.41 320.04 77.66 321.8 77.66 323.56 77.66 327.07 77.66 328.82 77.66 328.82 75.9 328.82 74.14 328.82 72.39 327.07 70.63 325.31 68.88 323.56 68.88 323.56 70.63 323.56 74.14 321.8 75.9 321.8 75.9 321.8 74.14 321.8 70.63 321.8 68.88 320.04 67.12 318.29 65.36 318.29 63.61 316.53 63.61 314.77 63.61 314.77 63.61 313.02 61.85 311.26 61.85 311.26 61.85 309.5 63.61 309.5 63.61"/>
  <polygon class="cls-1" points="325.31 81.17 330.58 82.93 334.09 84.68 334.09 82.93 335.85 81.17 335.85 81.17 335.85 79.41 332.34 79.41 330.58 79.41 328.82 79.41 327.07 79.41 325.31 81.17 325.31 81.17"/>
  <polygon class="cls-1" points="307.75 77.66 307.75 81.17 307.75 82.93 307.75 84.68 309.5 84.68 309.5 84.68 309.5 81.17 309.5 79.41 309.5 77.66 307.75 77.66 307.75 77.66"/>
  <polygon class="cls-1" points="307.75 88.2 307.75 95.22 307.75 96.98 307.75 98.73 309.5 98.73 309.5 100.49 309.5 102.25 311.26 100.49 313.02 100.49 313.02 100.49 314.77 102.25 314.77 104 314.77 105.76 316.53 105.76 318.29 105.76 321.8 105.76 321.8 104 321.8 102.25 321.8 102.25 321.8 98.73 321.8 96.98 321.8 93.47 321.8 91.71 320.04 91.71 318.29 89.95 316.53 89.95 314.77 89.95 314.77 89.95 313.02 91.71 313.02 93.47 313.02 95.22 313.02 96.98 313.02 95.22 311.26 93.47 309.5 89.95 309.5 88.2 307.75 88.2 307.75 88.2"/>
  <polygon class="cls-1" points="304.23 104 307.75 104 307.75 104 307.75 104 307.75 102.25 305.99 100.49 305.99 102.25 304.23 104 304.23 104"/>
  <polygon class="cls-1" points="305.99 126.84 307.75 132.11 307.75 133.86 309.5 133.86 311.26 133.86 311.26 135.62 314.77 140.89 316.53 142.65 316.53 144.4 316.53 142.65 318.29 142.65 320.04 140.89 321.8 140.89 323.56 139.13 323.56 139.13 325.31 135.62 325.31 135.62 325.31 133.86 325.31 132.11 325.31 130.35 323.56 126.84 323.56 126.84 321.8 126.84 320.04 125.08 321.8 125.08 321.8 123.32 323.56 121.57 323.56 119.81 321.8 116.3 321.8 116.3 321.8 116.3 320.04 116.3 318.29 118.06 316.53 116.3 314.77 116.3 313.02 118.06 311.26 118.06 311.26 119.81 311.26 121.57 311.26 123.32 313.02 125.08 313.02 126.84 313.02 126.84 309.5 125.08 307.75 125.08 305.99 126.84 305.99 126.84"/>
  <polygon class="cls-1" points="293.7 68.88 295.45 68.88 297.21 68.88 297.21 68.88 298.96 70.63 298.96 70.63 300.72 70.63 302.48 70.63 302.48 70.63 302.48 68.88 300.72 67.12 300.72 67.12 298.96 67.12 297.21 65.36 295.45 65.36 293.7 67.12 293.7 68.88 293.7 68.88"/>
  <polygon class="cls-1" points="288.43 70.63 288.43 72.39 288.43 72.39 290.18 72.39 290.18 72.39 291.94 70.63 291.94 68.88 291.94 68.88 288.43 70.63 288.43 70.63"/>
  <polygon class="cls-1" points="291.94 72.39 291.94 75.9 291.94 75.9 291.94 75.9 293.7 77.66 297.21 77.66 298.96 75.9 298.96 75.9 298.96 74.14 298.96 72.39 297.21 72.39 291.94 72.39 291.94 72.39"/>
  <polygon class="cls-2" points="272.62 88.2 272.62 89.95 272.62 89.95 274.38 88.2 276.13 86.44 277.89 84.68 276.13 84.68 274.38 84.68 272.62 86.44 272.62 88.2 272.62 88.2"/>
  <polygon class="cls-1" points="272.62 88.2 272.62 89.95 272.62 89.95 274.38 88.2 276.13 86.44 277.89 84.68 276.13 84.68 274.38 84.68 272.62 86.44 272.62 88.2 272.62 88.2"/>
  <polygon class="cls-1" points="263.84 75.9 265.59 79.41 265.59 81.17 267.35 82.93 267.35 82.93 270.86 84.68 270.86 82.93 274.38 81.17 276.13 79.41 277.89 81.17 277.89 82.93 279.64 82.93 279.64 82.93 281.4 81.17 283.16 81.17 283.16 79.41 283.16 77.66 283.16 75.9 284.91 75.9 286.67 75.9 286.67 74.14 284.91 72.39 284.91 72.39 284.91 72.39 281.4 74.14 281.4 72.39 279.64 72.39 277.89 72.39 274.38 74.14 270.86 74.14 269.11 75.9 267.35 75.9 263.84 75.9 263.84 75.9"/>
  <polygon class="cls-1" points="274.38 93.47 277.89 96.98 279.64 98.73 279.64 96.98 281.4 96.98 281.4 96.98 283.16 96.98 283.16 98.73 283.16 100.49 283.16 100.49 281.4 100.49 279.64 100.49 279.64 102.25 279.64 104 281.4 104 286.67 105.76 290.18 104 293.7 102.25 295.45 104 297.21 104 298.96 104 300.72 104 300.72 104 302.48 100.49 304.23 96.98 304.23 95.22 302.48 95.22 298.96 91.71 298.96 89.95 298.96 88.2 298.96 86.44 298.96 84.68 297.21 86.44 295.45 88.2 293.7 88.2 295.45 91.71 293.7 93.47 293.7 96.98 295.45 96.98 293.7 96.98 290.18 95.22 290.18 95.22 290.18 93.47 288.43 91.71 288.43 89.95 288.43 88.2 286.67 86.44 284.91 84.68 283.16 82.93 283.16 84.68 281.4 86.44 274.38 93.47 274.38 93.47"/>
  <polygon class="cls-1" points="256.81 125.08 258.57 128.59 258.57 128.59 258.57 130.35 256.81 132.11 256.81 132.11 258.57 133.86 258.57 135.62 260.32 137.38 262.08 137.38 263.84 139.13 265.59 139.13 267.35 139.13 269.11 140.89 269.11 140.89 270.86 142.65 270.86 144.4 270.86 144.4 267.35 144.4 265.59 144.4 263.84 144.4 260.32 142.65 258.57 142.65 256.81 140.89 256.81 142.65 256.81 146.16 256.81 147.91 256.81 149.67 258.57 151.43 260.32 153.18 263.84 153.18 263.84 154.94 263.84 154.94 263.84 160.21 263.84 160.21 265.59 161.97 269.11 161.97 272.62 161.97 276.13 161.97 277.89 161.97 281.4 161.97 284.91 161.97 286.67 160.21 288.43 160.21 290.18 158.45 290.18 158.45 291.94 158.45 291.94 161.97 293.7 163.72 295.45 165.48 297.21 167.23 298.96 165.48 300.72 165.48 302.48 165.48 302.48 165.48 304.23 163.72 305.99 163.72 305.99 161.97 304.23 160.21 304.23 158.45 305.99 158.45 307.75 158.45 307.75 158.45 309.5 154.94 309.5 154.94 307.75 153.18 305.99 151.43 304.23 151.43 302.48 149.67 300.72 149.67 300.72 147.91 298.96 147.91 298.96 146.16 297.21 144.4 297.21 142.65 298.96 140.89 298.96 139.13 298.96 135.62 298.96 130.35 297.21 128.59 298.96 126.84 302.48 123.32 304.23 121.57 302.48 119.81 302.48 118.06 298.96 118.06 297.21 116.3 295.45 118.06 293.7 123.32 291.94 125.08 291.94 126.84 290.18 125.08 288.43 123.32 286.67 121.57 284.91 121.57 283.16 121.57 283.16 121.57 281.4 119.81 281.4 118.06 281.4 119.81 277.89 119.81 276.13 121.57 276.13 119.81 277.89 116.3 277.89 116.3 276.13 114.54 274.38 114.54 272.62 114.54 272.62 116.3 270.86 116.3 267.35 116.3 265.59 118.06 262.08 118.06 262.08 118.06 262.08 119.81 260.32 121.57 258.57 121.57 256.81 123.32 256.81 125.08 256.81 125.08"/>
  <polygon class="cls-1" points="241 112.79 242.76 114.54 242.76 118.06 242.76 119.81 242.76 119.81 242.76 123.32 242.76 125.08 242.76 125.08 246.27 125.08 249.79 125.08 251.54 125.08 253.3 123.32 255.06 123.32 255.06 121.57 256.81 119.81 258.57 118.06 258.57 118.06 260.32 116.3 262.08 116.3 262.08 114.54 270.86 112.79 274.38 112.79 274.38 112.79 274.38 111.03 272.62 109.27 272.62 107.52 270.86 105.76 270.86 104 270.86 102.25 269.11 102.25 267.35 100.49 265.59 100.49 265.59 98.73 263.84 96.98 262.08 95.22 260.32 95.22 255.06 95.22 253.3 95.22 253.3 96.98 253.3 98.73 253.3 102.25 251.54 102.25 251.54 104 248.03 105.76 246.27 107.52 244.52 109.27 241 112.79 241 112.79"/>
  <polygon class="cls-1" points="79.41 19.7 77.66 19.7 75.9 19.7 77.66 21.45 77.66 23.21 77.66 24.96 77.66 26.72 77.66 28.48 75.9 30.23 77.66 31.99 79.41 33.75 79.41 33.75 79.41 33.75 79.41 33.75 79.41 30.23 79.41 28.48 81.17 24.96 81.17 23.21 79.41 19.7 79.41 19.7"/>
  <polygon class="cls-1" points="51.31 54.82 51.31 56.58 51.31 60.09 51.31 61.85 51.31 63.61 53.07 63.61 53.07 65.36 54.82 65.36 56.58 63.61 56.58 61.85 54.82 60.09 54.82 58.34 51.31 54.82 51.31 54.82"/>
  <polygon class="cls-1" points="54.82 133.86 53.07 139.13 53.07 140.89 54.82 142.65 56.58 142.65 58.34 144.4 58.34 142.65 60.09 142.65 61.85 142.65 63.61 142.65 63.61 144.4 65.36 144.4 65.36 144.4 67.12 142.65 67.12 140.89 65.36 139.13 67.12 139.13 70.63 140.89 70.63 140.89 70.63 140.89 70.63 139.13 72.39 137.38 70.63 137.38 67.12 137.38 54.82 133.86 54.82 133.86"/>
  <polygon class="cls-1" points="119.81 251.54 118.06 255.06 116.3 256.81 118.06 258.57 118.06 262.08 118.06 263.84 116.3 265.59 116.3 267.35 116.3 270.86 116.3 270.86 116.3 272.62 118.06 277.89 118.06 279.64 118.06 279.64 119.81 276.13 119.81 274.38 119.81 272.62 119.81 270.86 118.06 270.86 118.06 269.11 118.06 269.11 119.81 267.35 121.57 267.35 121.57 265.59 121.57 262.08 121.57 260.32 123.32 260.32 125.08 258.57 125.08 256.81 125.08 256.81 119.81 251.54 119.81 251.54"/>
  <polygon class="cls-1" points="126.84 300.72 128.59 305.99 128.59 307.75 128.59 309.5 130.35 309.5 132.11 314.77 133.86 316.53 132.11 318.29 132.11 318.29 133.86 320.04 133.86 321.8 135.62 323.56 135.62 325.31 135.62 325.31 137.38 327.07 139.13 327.07 139.13 327.07 137.38 328.82 139.13 330.58 142.65 335.85 144.4 337.61 144.4 337.61 146.16 337.61 147.91 335.85 147.91 335.85 146.16 334.09 144.4 327.07 142.65 323.56 142.65 320.04 140.89 316.53 140.89 314.77 140.89 313.02 140.89 311.26 139.13 311.26 133.86 305.99 132.11 304.23 130.35 302.48 130.35 300.72 128.59 300.72 126.84 300.72 126.84 300.72"/>
  <polygon class="cls-1" points="383.27 0.38 383.27 3.89 385.03 7.4 386.79 9.16 386.79 9.16 385.03 10.91 383.27 10.91 383.27 12.67 383.27 12.67 385.03 16.18 385.03 16.18 383.27 16.18 381.52 16.18 379.76 16.18 378 17.94 378 21.45 376.25 23.21 376.25 23.21 376.25 24.96 374.49 28.48 376.25 28.48 378 30.23 378 31.99 378 33.75 376.25 33.75 376.25 33.75 374.49 37.26 374.49 40.77 374.49 44.29 374.49 46.04 374.49 46.04 376.25 46.04 378 44.29 378 44.29 379.76 46.04 381.52 47.8 381.52 47.8 381.52 51.31 381.52 53.07 381.52 54.82 379.76 54.82 376.25 61.85 374.49 61.85 372.73 63.61 372.73 65.36 372.73 67.12 372.73 68.88 374.49 68.88 376.25 70.63 378 68.88 379.76 68.88 379.76 68.88 379.76 70.63 381.52 72.39 383.27 72.39 385.03 72.39 385.03 72.39 383.27 74.14 383.27 74.14 381.52 75.9 381.52 75.9 381.52 77.66 383.27 77.66 386.79 79.41 386.79 79.41 386.79 81.17 386.79 82.93 388.54 82.93 390.3 82.93 392.06 82.93 393.81 82.93 395.57 82.93 395.57 82.93 395.57 81.17 397.32 79.41 399.08 79.41 402.59 77.66 402.59 75.9 404.35 75.9 404.35 75.9 407.86 75.9 409.62 75.9 411.38 75.9 413.13 75.9 413.13 75.9 413.13 75.9 414.89 77.66 414.89 77.66 416.64 77.66 416.64 79.41 421.91 81.17 423.67 81.17 425.43 84.68 427.18 86.44 428.94 86.44 430.7 88.2 432.45 89.95 434.21 91.71 434.21 93.47 435.96 96.98 437.72 96.98 439.48 98.73 441.24 100.49 441.24 102.25 441.24 104 442.99 104 444.75 104 444.75 104 444.75 104 446.5 104 448.26 102.25 446.5 98.73 446.5 98.73 448.26 98.73 451.77 100.49 451.77 102.25 455.29 100.49 457.04 100.49 457.04 102.25 458.8 102.25 460.56 104 458.8 104 457.04 104 453.53 105.76 453.53 105.76 451.77 107.52 451.77 107.52 451.77 107.52 451.77 109.27 455.29 116.3 455.29 118.06 458.8 118.06 460.56 118.06 460.56 118.06 462.31 118.06 464.07 116.3 464.07 114.54 464.07 112.79 464.07 109.27 464.07 109.27 464.07 109.27 465.82 111.03 467.58 111.03 469.34 112.79 471.09 114.54 471.09 116.3 472.85 118.06 472.85 118.06 472.85 119.81 469.34 121.57 469.34 121.57 469.34 123.32 469.34 126.84 469.34 128.59 472.85 135.62 474.61 135.62 474.61 137.38 476.36 139.13 478.12 140.89 479.88 144.4 481.63 144.4 483.39 146.16 486.9 146.16 488.66 146.16 490.41 147.91 493.93 149.67 495.68 151.43 497.44 154.94 499.2 154.94 500.95 154.94 502.71 156.7 504.46 158.45 506.22 160.21 509.74 161.97 520.27 167.23 523.79 168.99 525.54 168.99 527.3 168.99 529.05 170.75 532.57 170.75 534.32 168.99 539.59 165.48 541.35 165.48 543.11 165.48 543.11 165.48 544.86 165.48 548.38 165.48 550.13 165.48 551.89 165.48 553.64 163.72 553.64 161.97 555.4 160.21 553.64 158.45 551.89 154.94 550.13 151.43 548.38 149.67 546.62 146.16 546.62 144.4 544.86 142.65 544.86 140.89 543.11 140.89 539.59 137.38 537.84 137.38 537.84 135.62 539.59 133.86 539.59 132.11 537.84 130.35 537.84 126.84 537.84 125.08 536.08 125.08 536.08 123.32 532.57 119.81 530.81 118.06 530.81 118.06 525.54 114.54 523.79 114.54 525.54 114.54 527.3 112.79 527.3 112.79 527.3 111.03 525.54 109.27 525.54 107.52 525.54 105.76 525.54 104 527.3 102.25 529.05 100.49 530.81 98.73 530.81 95.22 530.81 93.47 530.81 91.71 530.81 88.2 529.05 84.68 529.05 82.93 529.05 81.17 529.05 79.41 527.3 79.41 525.54 75.9 523.79 74.14 522.03 70.63 522.03 68.88 522.03 67.12 522.03 65.36 522.03 63.61 522.03 61.85 523.79 60.09 523.79 56.58 523.79 54.82 523.79 51.31 523.79 47.8 523.79 42.53 523.79 39.02 522.03 37.26 522.03 33.75 520.27 31.99 520.27 30.23 518.52 28.48 518.52 26.72 516.76 24.96 516.76 26.72 515 26.72 515 28.48 513.25 30.23 511.49 31.99 511.49 31.99 511.49 33.75 511.49 35.5 511.49 37.26 509.74 37.26 509.74 35.5 509.74 35.5 507.98 31.99 507.98 31.99 507.98 31.99 504.46 30.23 504.46 30.23 502.71 28.48 502.71 26.72 504.46 26.72 506.22 26.72 509.74 28.48 511.49 28.48 511.49 26.72 513.25 26.72 513.25 24.96 513.25 23.21 515 21.45 513.25 21.45 511.49 19.7 507.98 17.94 506.22 17.94 504.46 17.94 499.2 19.7 493.93 21.45 493.93 21.45 492.17 21.45 493.93 21.45 497.44 17.94 499.2 16.18 497.44 14.43 495.68 14.43 492.17 14.43 490.41 12.67 490.41 14.43 488.66 16.18 488.66 12.67 486.9 12.67 486.9 10.91 486.9 9.16 488.66 7.4 488.66 5.64 486.9 5.64 485.14 5.64 483.39 5.64 481.63 7.4 481.63 7.4 481.63 5.64 481.63 2.13 481.63 0.38 479.88 0.38 474.61 0.38 457.04 0.38 383.27 0.38 383.27 0.38"/>
  <polygon class="cls-1" points="557.16 51.31 557.16 49.55 558.91 47.8 558.91 47.8 558.91 46.04 558.91 44.29 560.67 42.53 560.67 42.53 560.67 44.29 562.43 51.31 564.18 53.07 564.18 53.07 564.18 51.31 565.94 47.8 565.94 47.8 567.7 47.8 571.21 47.8 571.21 47.8 572.97 47.8 574.72 51.31 574.72 51.31 574.72 49.55 576.48 46.04 576.48 44.29 578.24 42.53 581.75 40.77 581.75 39.02 583.5 37.26 583.5 35.5 583.5 33.75 583.5 31.99 581.75 30.23 581.75 26.72 581.75 24.96 581.75 23.21 579.99 19.7 579.99 17.94 579.99 14.43 579.99 12.67 578.24 10.91 578.24 10.91 576.48 9.16 574.72 7.4 572.97 7.4 571.21 5.64 569.45 5.64 567.7 7.4 565.94 9.16 565.94 9.16 564.18 9.16 562.43 9.16 560.67 9.16 560.67 9.16 560.67 12.67 558.91 12.67 558.91 14.43 557.16 14.43 558.91 16.18 558.91 16.18 560.67 17.94 560.67 19.7 560.67 19.7 560.67 21.45 560.67 23.21 558.91 23.21 558.91 24.96 558.91 26.72 558.91 28.48 560.67 30.23 560.67 30.23 558.91 30.23 557.16 31.99 557.16 31.99 557.16 31.99 560.67 33.75 562.43 33.75 562.43 35.5 562.43 39.02 562.43 39.02 560.67 39.02 558.91 39.02 557.16 37.26 555.4 37.26 553.64 39.02 551.89 39.02 551.89 40.77 550.13 42.53 550.13 42.53 551.89 42.53 551.89 46.04 553.64 46.04 555.4 47.8 555.4 49.55 557.16 51.31 557.16 51.31"/>
  <polygon class="cls-1" points="88.2 0.38 86.44 3.89 84.68 7.4 84.68 7.4 84.68 9.16 84.68 10.91 84.68 12.67 86.44 12.67 86.44 12.67 88.2 12.67 89.95 12.67 91.71 14.43 93.47 12.67 95.22 12.67 96.98 12.67 96.98 12.67 98.73 16.18 98.73 16.18 98.73 16.18 100.49 17.94 102.25 17.94 102.25 17.94 104 19.7 105.76 19.7 105.76 19.7 107.52 16.18 109.27 12.67 111.03 10.91 111.03 7.4 111.03 5.64 111.03 3.89 111.03 2.13 111.03 0.38 109.27 0.38 105.76 0.38 88.2 0.38 88.2 0.38"/>
  <polygon class="cls-1" points="602.82 783.74 602.82 776.71 604.58 774.95 604.58 773.2 602.82 773.2 601.07 773.2 599.31 774.95 597.55 774.95 595.8 776.71 592.29 776.71 588.77 774.95 588.77 776.71 587.02 776.71 583.5 776.71 583.5 774.95 583.5 774.95 578.24 771.44 578.24 769.68 578.24 769.68 576.48 767.93 572.97 767.93 571.21 767.93 569.45 767.93 569.45 767.93 567.7 769.68 564.18 769.68 562.43 769.68 560.67 769.68 558.91 769.68 557.16 767.93 557.16 767.93 555.4 766.17 555.4 764.41 555.4 762.66 553.64 759.14 553.64 759.14 551.89 757.39 550.13 753.88 548.38 750.36 546.62 748.61 544.86 746.85 544.86 746.85 544.86 745.09 546.62 745.09 546.62 739.82 546.62 736.31 546.62 734.55 548.38 732.8 548.38 731.04 553.64 725.77 553.64 724.02 555.4 720.5 557.16 720.5 558.91 720.5 560.67 718.75 560.67 716.99 560.67 716.99 560.67 716.99 560.67 715.24 558.91 713.48 557.16 713.48 555.4 713.48 553.64 715.24 551.89 718.75 550.13 720.5 550.13 722.26 548.38 724.02 546.62 724.02 544.86 725.77 541.35 727.53 539.59 729.29 537.84 729.29 534.32 729.29 532.57 729.29 532.57 729.29 532.57 732.8 532.57 732.8 530.81 732.8 529.05 732.8 527.3 732.8 525.54 732.8 525.54 734.55 523.79 734.55 522.03 736.31 522.03 738.07 522.03 738.07 522.03 741.58 522.03 745.09 522.03 748.61 522.03 748.61 520.27 748.61 520.27 750.36 518.52 750.36 516.76 752.12 516.76 753.88 515 755.63 515 757.39 513.25 759.14 511.49 759.14 511.49 760.9 513.25 766.17 513.25 766.17 513.25 767.93 511.49 766.17 506.22 760.9 504.46 759.14 504.46 760.9 506.22 760.9 506.22 764.41 507.98 766.17 507.98 766.17 506.22 767.93 506.22 769.68 504.46 769.68 502.71 769.68 502.71 771.44 500.95 773.2 502.71 774.95 506.22 780.22 507.98 780.22 506.22 783.74 506.22 783.74 507.98 783.74 511.49 783.74 530.81 783.74 602.82 783.74 602.82 783.74"/>
  <polygon class="cls-1" points="611.61 783.74 611.61 738.07 611.61 727.53 611.61 725.77 611.61 724.02 611.61 724.02 608.09 725.77 595.8 729.29 592.29 729.29 592.29 729.29 590.53 727.53 588.77 724.02 588.77 722.26 587.02 720.5 585.26 720.5 583.5 720.5 581.75 720.5 578.24 720.5 576.48 720.5 574.72 720.5 574.72 718.75 572.97 715.24 572.97 713.48 571.21 715.24 569.45 716.99 569.45 716.99 569.45 716.99 571.21 720.5 571.21 720.5 571.21 722.26 569.45 724.02 562.43 727.53 560.67 727.53 560.67 729.29 560.67 731.04 560.67 732.8 560.67 734.55 562.43 738.07 564.18 741.58 565.94 743.34 565.94 745.09 565.94 746.85 564.18 746.85 560.67 748.61 560.67 748.61 560.67 748.61 558.91 746.85 558.91 745.09 558.91 743.34 557.16 743.34 557.16 741.58 557.16 739.82 558.91 734.55 558.91 732.8 558.91 731.04 555.4 725.77 555.4 724.02 555.4 724.02 555.4 722.26 558.91 722.26 558.91 720.5 558.91 720.5 558.91 720.5 557.16 720.5 555.4 720.5 553.64 724.02 553.64 725.77 548.38 731.04 548.38 732.8 546.62 734.55 546.62 736.31 546.62 739.82 546.62 745.09 544.86 745.09 544.86 746.85 544.86 746.85 546.62 748.61 548.38 750.36 550.13 753.88 551.89 757.39 553.64 759.14 553.64 759.14 555.4 762.66 555.4 764.41 555.4 766.17 557.16 767.93 557.16 767.93 558.91 769.68 560.67 769.68 562.43 769.68 564.18 769.68 567.7 769.68 569.45 767.93 569.45 767.93 571.21 767.93 572.97 767.93 576.48 767.93 578.24 769.68 578.24 769.68 578.24 771.44 583.5 774.95 583.5 774.95 583.5 776.71 585.26 776.71 587.02 776.71 588.77 776.71 588.77 774.95 592.29 776.71 595.8 776.71 599.31 774.95 601.07 773.2 602.82 773.2 604.58 773.2 604.58 776.71 602.82 781.98 602.82 783.74 604.58 783.74 611.61 783.74 611.61 783.74"/>
  <polygon class="cls-1" points="500.95 773.2 502.71 771.44 502.71 769.68 504.46 769.68 506.22 769.68 506.22 767.93 507.98 766.17 507.98 766.17 506.22 764.41 506.22 762.66 504.46 759.14 502.71 759.14 500.95 757.39 499.2 755.63 495.68 753.88 495.68 753.88 493.93 753.88 490.41 752.12 488.66 752.12 486.9 752.12 485.14 752.12 483.39 752.12 481.63 753.88 481.63 755.63 483.39 757.39 483.39 757.39 485.14 759.14 485.14 759.14 488.66 757.39 488.66 759.14 490.41 759.14 492.17 759.14 493.93 760.9 493.93 762.66 495.68 764.41 497.44 764.41 499.2 764.41 497.44 764.41 495.68 767.93 497.44 769.68 497.44 771.44 499.2 773.2 500.95 773.2 500.95 773.2 500.95 773.2"/>
  <polygon class="cls-1" points="478.12 755.63 481.63 755.63 481.63 755.63 481.63 755.63 481.63 755.63 483.39 757.39 485.14 759.14 483.39 760.9 483.39 759.14 478.12 755.63 478.12 755.63"/>
  <polygon class="cls-1" points="455.29 755.63 455.29 755.63 457.04 757.39 457.04 757.39 458.8 759.14 458.8 760.9 460.56 760.9 462.31 760.9 462.31 760.9 464.07 760.9 465.82 762.66 465.82 762.66 469.34 760.9 476.36 757.39 478.12 755.63 478.12 755.63 479.88 757.39 481.63 759.14 483.39 760.9 483.39 760.9 483.39 760.9 483.39 762.66 481.63 762.66 478.12 766.17 476.36 767.93 476.36 769.68 476.36 771.44 478.12 771.44 479.88 773.2 481.63 773.2 481.63 774.95 479.88 774.95 476.36 776.71 474.61 776.71 472.85 778.47 472.85 776.71 471.09 773.2 471.09 773.2 471.09 773.2 467.58 773.2 465.82 773.2 465.82 771.44 464.07 769.68 462.31 769.68 458.8 767.93 455.29 767.93 451.77 767.93 451.77 767.93 451.77 766.17 453.53 766.17 453.53 764.41 453.53 760.9 451.77 760.9 451.77 759.14 451.77 757.39 451.77 757.39 451.77 755.63 453.53 755.63 455.29 755.63 455.29 755.63"/>
  <polygon class="cls-1" points="423.67 743.34 421.91 748.61 421.91 750.36 423.67 752.12 423.67 752.12 425.43 753.88 427.18 753.88 427.18 755.63 428.94 757.39 430.7 755.63 432.45 753.88 432.45 752.12 432.45 753.88 434.21 755.63 434.21 755.63 437.72 757.39 441.24 759.14 442.99 759.14 442.99 760.9 444.75 760.9 444.75 762.66 444.75 766.17 444.75 767.93 444.75 767.93 450.02 767.93 451.77 767.93 451.77 766.17 453.53 764.41 453.53 762.66 453.53 760.9 451.77 760.9 451.77 759.14 451.77 757.39 451.77 757.39 453.53 755.63 453.53 755.63 455.29 755.63 453.53 753.88 450.02 752.12 448.26 752.12 448.26 750.36 448.26 748.61 444.75 745.09 444.75 743.34 442.99 743.34 442.99 743.34 439.48 745.09 439.48 743.34 435.96 743.34 434.21 743.34 432.45 743.34 430.7 743.34 428.94 743.34 427.18 741.58 425.43 741.58 423.67 741.58 423.67 743.34 423.67 743.34 423.67 743.34"/>
  <polygon class="cls-1" points="406.11 724.02 404.35 725.77 402.59 725.77 404.35 725.77 406.11 727.53 407.86 729.29 409.62 731.04 416.64 736.31 418.4 738.07 420.16 739.82 421.91 741.58 423.67 743.34 421.91 743.34 423.67 741.58 425.43 741.58 427.18 743.34 430.7 743.34 432.45 743.34 435.96 743.34 439.48 743.34 439.48 745.09 441.24 743.34 442.99 743.34 442.99 743.34 442.99 741.58 441.24 739.82 441.24 739.82 441.24 738.07 441.24 734.55 442.99 732.8 441.24 731.04 442.99 727.53 442.99 724.02 442.99 720.5 442.99 716.99 442.99 715.24 441.24 713.48 442.99 711.72 444.75 708.21 442.99 706.45 442.99 704.7 442.99 701.18 442.99 701.18 441.24 702.94 435.96 704.7 434.21 704.7 434.21 706.45 432.45 706.45 428.94 706.45 427.18 706.45 427.18 706.45 427.18 708.21 427.18 709.97 423.67 711.72 421.91 713.48 418.4 713.48 416.64 715.24 413.13 716.99 411.38 718.75 411.38 718.75 411.38 720.5 409.62 722.26 407.86 724.02 406.11 724.02 406.11 724.02"/>
  <polygon class="cls-1" points="385.03 711.72 385.03 713.48 385.03 715.24 381.52 716.99 379.76 716.99 379.76 718.75 381.52 720.5 381.52 720.5 383.27 722.26 383.27 722.26 386.79 722.26 390.3 722.26 392.06 724.02 393.81 724.02 397.32 724.02 400.84 724.02 400.84 724.02 400.84 722.26 400.84 720.5 400.84 718.75 400.84 716.99 400.84 716.99 397.32 715.24 397.32 716.99 395.57 716.99 393.81 716.99 392.06 715.24 390.3 713.48 388.54 711.72 386.79 711.72 385.03 711.72 385.03 711.72"/>
  <polygon class="cls-1" points="442.99 701.18 435.96 704.7 435.96 704.7 434.21 706.45 432.45 706.45 428.94 706.45 427.18 706.45 427.18 706.45 427.18 708.21 427.18 709.97 425.43 709.97 423.67 711.72 423.67 711.72 421.91 713.48 418.4 715.24 414.89 715.24 413.13 716.99 411.38 718.75 411.38 720.5 409.62 722.26 409.62 724.02 407.86 724.02 406.11 724.02 404.35 724.02 402.59 722.26 402.59 720.5 400.84 720.5 400.84 716.99 400.84 716.99 400.84 716.99 397.32 715.24 397.32 716.99 395.57 716.99 393.81 715.24 388.54 711.72 386.79 711.72 386.79 711.72 385.03 711.72 385.03 711.72 386.79 709.97 386.79 708.21 386.79 706.45 388.54 704.7 392.06 701.18 393.81 699.43 393.81 697.67 395.57 697.67 397.32 699.43 397.32 699.43 399.08 697.67 402.59 695.91 402.59 697.67 404.35 697.67 407.86 697.67 409.62 697.67 414.89 695.91 414.89 694.16 416.64 694.16 418.4 694.16 421.91 694.16 423.67 694.16 427.18 694.16 428.94 694.16 430.7 694.16 434.21 694.16 435.96 695.91 437.72 697.67 439.48 699.43 441.24 701.18 442.99 701.18 442.99 701.18 442.99 701.18"/>
  <polygon class="cls-1" points="546.62 655.52 546.62 653.76 546.62 652 544.86 652 544.86 650.25 544.86 648.49 544.86 644.98 546.62 643.22 543.11 637.95 543.11 637.95 543.11 637.95 541.35 639.71 541.35 639.71 537.84 637.95 536.08 637.95 536.08 637.95 534.32 637.95 532.57 637.95 530.81 639.71 529.05 641.47 527.3 641.47 529.05 641.47 530.81 641.47 532.57 641.47 532.57 641.47 534.32 643.22 534.32 644.98 536.08 646.74 536.08 648.49 536.08 648.49 539.59 650.25 539.59 652 539.59 652 537.84 653.76 536.08 653.76 534.32 655.52 530.81 655.52 527.3 653.76 525.54 653.76 523.79 653.76 522.03 655.52 522.03 657.27 520.27 657.27 522.03 657.27 523.79 659.03 527.3 659.03 527.3 659.03 529.05 659.03 529.05 657.27 530.81 657.27 534.32 657.27 546.62 655.52 546.62 655.52"/>
  <polygon class="cls-1" points="546.62 655.52 546.62 653.76 546.62 652 544.86 652 544.86 650.25 544.86 648.49 544.86 644.98 546.62 643.22 544.86 641.47 544.86 639.71 543.11 637.95 543.11 637.95 544.86 637.95 548.38 636.2 550.13 636.2 553.64 636.2 557.16 636.2 560.67 636.2 562.43 637.95 562.43 637.95 564.18 637.95 565.94 637.95 567.7 637.95 567.7 637.95 567.7 637.95 565.94 639.71 564.18 641.47 565.94 641.47 569.45 641.47 571.21 641.47 572.97 641.47 572.97 641.47 574.72 643.22 576.48 644.98 576.48 644.98 574.72 648.49 574.72 650.25 574.72 648.49 572.97 648.49 571.21 646.74 569.45 646.74 565.94 648.49 564.18 648.49 562.43 650.25 560.67 650.25 557.16 652 557.16 652 557.16 650.25 555.4 650.25 553.64 652 551.89 652 551.89 653.76 551.89 655.52 551.89 655.52 551.89 657.27 550.13 659.03 550.13 660.79 550.13 659.03 546.62 655.52 546.62 655.52"/>
  <polygon class="cls-1" points="390.3 695.91 386.79 695.91 386.79 695.91 386.79 694.16 385.03 692.4 385.03 681.86 385.03 678.35 385.03 676.59 385.03 676.59 381.52 676.59 374.49 678.35 372.73 678.35 370.98 678.35 369.22 680.11 369.22 681.86 369.22 683.62 369.22 683.62 367.46 683.62 365.71 683.62 365.71 683.62 367.46 685.38 369.22 687.13 370.98 688.89 370.98 690.64 372.73 690.64 374.49 694.16 372.73 694.16 370.98 695.91 369.22 695.91 367.46 695.91 365.71 695.91 363.95 697.67 363.95 699.43 360.44 704.7 360.44 704.7 358.68 706.45 358.68 708.21 358.68 709.97 358.68 711.72 360.44 713.48 360.44 715.24 362.2 715.24 367.46 716.99 370.98 716.99 372.73 716.99 376.25 716.99 378 718.75 378 718.75 379.76 718.75 381.52 716.99 383.27 715.24 385.03 715.24 385.03 713.48 385.03 711.72 386.79 709.97 386.79 709.97 386.79 708.21 386.79 706.45 388.54 704.7 388.54 704.7 392.06 702.94 393.81 699.43 393.81 697.67 395.57 697.67 393.81 697.67 390.3 695.91 390.3 695.91"/>
  <polygon class="cls-1" points="392.06 671.32 390.3 671.32 390.3 673.08 388.54 673.08 388.54 674.84 386.79 676.59 385.03 676.59 385.03 678.35 385.03 680.11 385.03 688.89 385.03 690.64 385.03 694.16 386.79 695.91 386.79 695.91 388.54 695.91 390.3 695.91 388.54 695.91 390.3 695.91 392.06 694.16 392.06 692.4 393.81 690.64 393.81 688.89 393.81 687.13 395.57 685.38 393.81 683.62 393.81 680.11 392.06 673.08 392.06 671.32 392.06 671.32"/>
  <polygon class="cls-1" points="146.16 515 149.67 525.54 149.67 527.3 149.67 529.05 149.67 530.81 149.67 532.57 149.67 534.32 151.43 536.08 151.43 539.59 151.43 541.35 151.43 541.35 153.18 541.35 153.18 543.11 153.18 546.62 153.18 548.38 153.18 548.38 154.94 550.13 156.7 550.13 156.7 551.89 158.45 553.64 161.97 558.91 163.72 560.67 163.72 564.18 163.72 565.94 163.72 567.7 163.72 567.7 163.72 569.45 161.97 569.45 160.21 569.45 158.45 569.45 156.7 569.45 156.7 569.45 154.94 567.7 156.7 569.45 158.45 571.21 158.45 572.97 160.21 574.72 160.21 576.48 161.97 578.24 163.72 579.99 165.48 581.75 167.23 581.75 168.99 581.75 170.75 581.75 170.75 583.5 170.75 585.26 172.5 587.02 174.26 588.77 176.02 588.77 177.77 592.29 177.77 594.04 177.77 595.8 177.77 595.8 177.77 597.55 177.77 601.07 176.02 601.07 176.02 602.82 174.26 602.82 176.02 604.58 179.53 604.58 181.29 606.34 181.29 608.09 183.04 609.85 188.31 615.12 190.07 616.88 191.82 620.39 191.82 622.14 193.58 625.66 193.58 627.41 195.34 625.66 197.09 623.9 198.85 622.14 198.85 622.14 198.85 620.39 198.85 620.39 195.34 613.36 193.58 611.61 191.82 611.61 190.07 611.61 190.07 609.85 188.31 608.09 188.31 606.34 190.07 606.34 188.31 604.58 188.31 602.82 186.56 601.07 186.56 599.31 188.31 597.55 186.56 595.8 184.8 592.29 184.8 590.53 184.8 587.02 183.04 583.5 181.29 581.75 179.53 578.24 177.77 574.72 176.02 572.97 174.26 571.21 174.26 569.45 174.26 567.7 174.26 564.18 172.5 560.67 170.75 557.16 167.23 555.4 165.48 551.89 163.72 546.62 161.97 544.86 161.97 543.11 161.97 541.35 163.72 539.59 163.72 537.84 161.97 534.32 161.97 530.81 163.72 529.05 163.72 527.3 165.48 529.05 165.48 529.05 167.23 530.81 168.99 530.81 170.75 530.81 172.5 532.57 176.02 534.32 176.02 536.08 176.02 537.84 176.02 539.59 176.02 541.35 177.77 544.86 177.77 548.38 177.77 551.89 179.53 555.4 179.53 557.16 181.29 560.67 181.29 562.43 183.04 564.18 184.8 565.94 186.56 567.7 188.31 569.45 188.31 571.21 190.07 572.97 191.82 572.97 193.58 572.97 193.58 574.72 193.58 578.24 193.58 578.24 193.58 579.99 197.09 581.75 198.85 583.5 198.85 585.26 198.85 585.26 198.85 587.02 202.36 587.02 202.36 588.77 202.36 588.77 204.12 590.53 202.36 592.29 202.36 595.8 202.36 597.55 204.12 599.31 209.39 601.07 209.39 602.82 211.15 602.82 211.15 604.58 212.9 606.34 212.9 609.85 214.66 609.85 214.66 611.61 218.17 613.36 219.93 616.88 221.68 618.63 225.2 622.14 226.95 625.66 228.71 627.41 232.22 632.68 232.22 632.68 232.22 634.44 233.98 636.2 233.98 639.71 233.98 641.47 235.73 643.22 237.49 643.22 237.49 646.74 237.49 646.74 235.73 648.49 235.73 650.25 233.98 650.25 235.73 652 235.73 653.76 233.98 655.52 232.22 655.52 233.98 657.27 235.73 660.79 237.49 664.3 239.25 666.05 239.25 666.05 241 667.81 242.76 667.81 248.03 671.32 249.79 674.84 251.54 676.59 253.3 676.59 253.3 676.59 256.81 678.35 258.57 680.11 260.32 680.11 263.84 680.11 265.59 680.11 267.35 681.86 269.11 681.86 270.86 683.62 272.62 685.38 274.38 687.13 276.13 687.13 277.89 688.89 281.4 690.64 283.16 690.64 284.91 692.4 288.43 692.4 290.18 694.16 291.94 694.16 293.7 694.16 297.21 695.91 298.96 697.67 300.72 697.67 304.23 699.43 305.99 699.43 307.75 699.43 314.77 701.18 318.29 702.94 320.04 702.94 321.8 702.94 321.8 701.18 327.07 699.43 328.82 697.67 330.58 697.67 332.34 697.67 332.34 697.67 335.85 697.67 339.36 697.67 341.12 697.67 342.88 699.43 344.63 701.18 346.39 701.18 348.14 702.94 349.9 704.7 351.66 706.45 353.41 708.21 356.93 711.72 358.68 711.72 358.68 711.72 358.68 709.97 358.68 708.21 358.68 706.45 360.44 704.7 360.44 702.94 363.95 697.67 365.71 695.91 367.46 695.91 369.22 695.91 372.73 694.16 374.49 694.16 372.73 690.64 370.98 690.64 370.98 688.89 369.22 687.13 367.46 685.38 365.71 683.62 365.71 683.62 367.46 683.62 369.22 683.62 369.22 683.62 369.22 681.86 369.22 680.11 370.98 680.11 370.98 678.35 374.49 678.35 381.52 676.59 383.27 676.59 385.03 676.59 386.79 676.59 388.54 674.84 388.54 673.08 390.3 673.08 392.06 671.32 393.81 671.32 395.57 674.84 397.32 676.59 397.32 674.84 399.08 673.08 399.08 671.32 399.08 667.81 399.08 666.05 399.08 664.3 399.08 660.79 399.08 659.03 400.84 655.52 400.84 653.76 400.84 652 400.84 650.25 402.59 648.49 404.35 646.74 404.35 644.98 404.35 643.22 404.35 641.47 402.59 639.71 400.84 639.71 397.32 639.71 395.57 639.71 393.81 639.71 392.06 639.71 390.3 639.71 383.27 643.22 379.76 643.22 376.25 644.98 374.49 644.98 372.73 646.74 372.73 648.49 372.73 650.25 372.73 653.76 370.98 657.27 370.98 659.03 370.98 660.79 370.98 662.54 370.98 662.54 370.98 664.3 369.22 666.05 365.71 667.81 365.71 669.57 365.71 671.32 363.95 671.32 362.2 673.08 360.44 673.08 360.44 671.32 358.68 671.32 356.93 671.32 355.17 671.32 351.66 673.08 349.9 674.84 348.14 674.84 346.39 674.84 341.12 676.59 337.61 676.59 335.85 676.59 334.09 674.84 332.34 674.84 330.58 673.08 330.58 673.08 325.31 671.32 323.56 671.32 323.56 671.32 321.8 669.57 320.04 667.81 320.04 664.3 318.29 662.54 316.53 660.79 314.77 657.27 313.02 655.52 311.26 653.76 311.26 653.76 309.5 652 309.5 650.25 307.75 648.49 307.75 646.74 309.5 644.98 309.5 643.22 307.75 643.22 305.99 641.47 304.23 639.71 304.23 637.95 304.23 636.2 304.23 636.2 304.23 632.68 304.23 630.93 304.23 629.17 304.23 627.41 304.23 620.39 304.23 616.88 304.23 615.12 305.99 613.36 305.99 611.61 307.75 608.09 307.75 604.58 309.5 601.07 311.26 601.07 309.5 601.07 305.99 599.31 302.48 599.31 300.72 597.55 297.21 597.55 295.45 595.8 293.7 595.8 293.7 595.8 291.94 594.04 291.94 592.29 290.18 590.53 290.18 590.53 290.18 587.02 288.43 583.5 286.67 581.75 284.91 579.99 283.16 578.24 281.4 574.72 281.4 572.97 279.64 571.21 279.64 569.45 279.64 567.7 277.89 564.18 276.13 562.43 274.38 562.43 272.62 560.67 272.62 560.67 269.11 558.91 265.59 558.91 262.08 558.91 262.08 560.67 258.57 565.94 258.57 567.7 255.06 567.7 253.3 565.94 251.54 565.94 248.03 560.67 246.27 560.67 246.27 558.91 244.52 557.16 244.52 551.89 244.52 550.13 242.76 550.13 242.76 548.38 239.25 546.62 237.49 544.86 235.73 541.35 233.98 539.59 232.22 537.84 230.47 537.84 230.47 537.84 221.68 536.08 218.17 536.08 218.17 536.08 216.41 537.84 216.41 539.59 214.66 539.59 212.9 539.59 207.63 539.59 197.09 537.84 195.34 537.84 193.58 537.84 191.82 536.08 191.82 536.08 184.8 532.57 181.29 529.05 177.77 527.3 174.26 525.54 170.75 522.03 167.23 520.27 165.48 518.52 165.48 518.52 163.72 516.76 161.97 516.76 160.21 516.76 149.67 516.76 147.91 515 146.16 515 146.16 515 146.16 515"/>
  <polygon class="cls-3" points="186.56 98.73 139.13 154.94 126.84 167.23 125.08 168.99 123.32 170.75 123.32 172.5 125.08 172.5 128.59 176.02 130.35 177.77 128.59 177.77 128.59 179.53 128.59 179.53 128.59 183.04 128.59 188.31 128.59 190.07 126.84 193.58 128.59 195.34 130.35 195.34 132.11 195.34 133.86 195.34 135.62 193.58 139.13 193.58 140.89 195.34 140.89 195.34 140.89 197.09 139.13 202.36 139.13 205.88 140.89 207.63 140.89 209.39 140.89 211.15 140.89 214.66 139.13 228.71 137.38 232.22 137.38 233.98 139.13 233.98 139.13 235.73 142.65 241 142.65 244.52 142.65 246.27 140.89 249.79 139.13 253.3 139.13 253.3 135.62 253.3 133.86 253.3 133.86 251.54 132.11 249.79 132.11 246.27 132.11 242.76 132.11 241 133.86 239.25 133.86 239.25 133.86 237.49 132.11 237.49 132.11 235.73 132.11 233.98 132.11 233.98 132.11 233.98 130.35 237.49 130.35 242.76 130.35 244.52 130.35 246.27 128.59 248.03 126.84 249.79 126.84 251.54 126.84 248.03 126.84 246.27 126.84 244.52 126.84 241 126.84 235.73 126.84 233.98 126.84 232.22 128.59 232.22 128.59 230.47 128.59 230.47 125.08 228.71 126.84 226.95 126.84 225.2 128.59 225.2 130.35 223.44 132.11 223.44 132.11 223.44 133.86 226.95 133.86 226.95 133.86 225.2 135.62 219.93 135.62 218.17 133.86 219.93 132.11 221.68 130.35 221.68 128.59 221.68 128.59 221.68 130.35 218.17 132.11 216.41 132.11 212.9 133.86 211.15 135.62 209.39 135.62 205.88 135.62 205.88 135.62 205.88 135.62 205.88 133.86 207.63 132.11 209.39 132.11 207.63 130.35 207.63 130.35 207.63 132.11 209.39 132.11 211.15 130.35 212.9 130.35 214.66 126.84 221.68 123.32 226.95 123.32 228.71 123.32 228.71 123.32 226.95 123.32 223.44 125.08 219.93 125.08 214.66 125.08 212.9 125.08 211.15 126.84 207.63 126.84 204.12 126.84 202.36 125.08 198.85 125.08 197.09 125.08 193.58 125.08 191.82 125.08 188.31 125.08 186.56 123.32 184.8 123.32 183.04 123.32 183.04 125.08 179.53 125.08 179.53 125.08 179.53 121.57 179.53 121.57 177.77 119.81 176.02 119.81 174.26 118.06 172.5 118.06 168.99 116.3 167.23 114.54 165.48 112.79 163.72 111.03 161.97 111.03 160.21 111.03 158.45 109.27 156.7 109.27 154.94 109.27 151.43 109.27 149.67 109.27 147.91 107.52 146.16 107.52 144.4 105.76 142.65 105.76 140.89 104 139.13 104 137.38 104 139.13 102.25 140.89 100.49 140.89 100.49 142.65 98.73 142.65 96.98 144.4 95.22 144.4 95.22 142.65 93.47 142.65 93.47 140.89 91.71 140.89 89.95 140.89 84.68 139.13 82.93 139.13 81.17 137.38 79.41 135.62 79.41 135.62 81.17 135.62 82.93 135.62 82.93 135.62 82.93 133.86 82.93 132.11 82.93 132.11 84.68 132.11 86.44 130.35 88.2 130.35 89.95 128.59 91.71 128.59 93.47 126.84 95.22 128.59 95.22 128.59 96.98 130.35 98.73 130.35 100.49 130.35 100.49 128.59 100.49 126.84 98.73 126.84 96.98 125.08 93.47 125.08 91.71 125.08 89.95 125.08 88.2 125.08 88.2 125.08 86.44 126.84 84.68 126.84 82.93 126.84 81.17 126.84 79.41 126.84 77.66 125.08 75.9 125.08 74.14 125.08 72.39 126.84 72.39 126.84 72.39 130.35 72.39 130.35 72.39 130.35 70.63 130.35 68.88 130.35 67.12 132.11 63.61 130.35 63.61 130.35 61.85 130.35 56.58 128.59 54.82 126.84 53.07 126.84 49.55 126.84 47.8 126.84 46.04 126.84 46.04 125.08 40.77 123.32 39.02 121.57 37.26 121.57 35.5 121.57 33.75 121.57 33.75 121.57 31.99 121.57 31.99 119.81 26.72 116.3 24.96 112.79 21.45 111.03 19.7 109.27 17.94 109.27 16.18 107.52 14.43 105.76 12.67 104 12.67 104 5.64 100.49 3.89 98.73 3.89 98.73 3.89 96.98 5.64 95.22 7.4 95.22 9.16 96.98 10.91 98.73 12.67 100.49 14.43 102.25 16.18 104 19.7 104 21.45 104 23.21 105.76 24.96 107.52 26.72 109.27 28.48 111.03 28.48 112.79 30.23 112.79 31.99 112.79 33.75 112.79 37.26 114.54 40.77 116.3 42.53 116.3 44.29 116.3 47.8 118.06 49.55 118.06 51.31 116.3 56.58 114.54 60.09 112.79 60.09 112.79 60.09 111.03 58.34 109.27 58.34 109.27 58.34 107.52 58.34 105.76 56.58 105.76 54.82 107.52 53.07 107.52 54.82 105.76 56.58 102.25 56.58 100.49 54.82 98.73 54.82 95.22 53.07 93.47 53.07 93.47 51.31 91.71 51.31 91.71 51.31 89.95 53.07 88.2 53.07 88.2 54.82 86.44 56.58 86.44 58.34 84.68 60.09 82.93 61.85 81.17 61.85 81.17 60.09 81.17 58.34 79.41 56.58 79.41 56.58 79.41 54.82 75.9 54.82 75.9 54.82 74.14 56.58 72.39 58.34 68.88 60.09 65.36 61.85 63.61 65.36 61.85 65.36 58.34 67.12 56.58 67.12 54.82 70.63 54.82 72.39 54.82 74.14 54.82 75.9 54.82 79.41 56.58 81.17 54.82 82.93 54.82 82.93 54.82 84.68 54.82 86.44 56.58 86.44 56.58 86.44 58.34 86.44 61.85 86.44 61.85 86.44 63.61 88.2 63.61 89.95 63.61 91.71 65.36 93.47 67.12 93.47 68.88 95.22 68.88 96.98 68.88 98.73 67.12 100.49 67.12 100.49 63.61 102.25 63.61 104 63.61 105.76 61.85 104 61.85 100.49 58.34 98.73 58.34 98.73 56.58 98.73 54.82 98.73 53.07 96.98 49.55 96.98 47.8 95.22 46.04 95.22 42.53 95.22 40.77 96.98 40.77 96.98 39.02 98.73 37.26 100.49 37.26 102.25 37.26 102.25 35.5 102.25 33.75 102.25 31.99 102.25 30.23 102.25 30.23 105.76 31.99 107.52 31.99 107.52 33.75 109.27 33.75 109.27 35.5 114.54 39.02 114.54 40.77 116.3 42.53 116.3 42.53 116.3 44.29 112.79 44.29 112.79 46.04 112.79 46.04 114.54 51.31 114.54 51.31 116.3 51.31 118.06 51.31 119.81 51.31 121.57 46.04 121.57 44.29 123.32 42.53 125.08 39.02 126.84 37.26 126.84 37.26 128.59 35.5 128.59 30.23 130.35 26.72 132.11 26.72 133.86 26.72 135.62 24.96 135.62 26.72 139.13 31.99 140.89 33.75 142.65 33.75 146.16 33.75 149.67 33.75 151.43 33.75 153.18 33.75 154.94 33.75 154.94 35.5 156.7 37.26 158.45 39.02 161.97 40.77 161.97 40.77 163.72 42.53 163.72 44.29 165.48 44.29 168.99 46.04 170.75 46.04 170.75 47.8 170.75 49.55 170.75 51.31 170.75 53.07 170.75 53.07 168.99 54.82 170.75 56.58 172.5 58.34 172.5 60.09 172.5 61.85 170.75 63.61 170.75 65.36 172.5 67.12 174.26 68.88 176.02 72.39 176.02 74.14 177.77 77.66 177.77 79.41 179.53 81.17 179.53 84.68 181.29 86.44 181.29 88.2 184.8 89.95 186.56 91.71 186.56 93.47 186.56 98.73 186.56 98.73"/>
  <polygon class="cls-1" points="416.64 420.16 418.4 418.4 420.16 416.64 420.16 414.89 420.16 413.13 420.16 411.38 420.16 407.86 420.16 404.35 420.16 400.84 420.16 399.08 420.16 399.08 420.16 399.08 421.91 400.84 421.91 400.84 423.67 400.84 425.43 402.59 427.18 402.59 428.94 402.59 430.7 402.59 430.7 400.84 430.7 399.08 430.7 399.08 428.94 397.32 423.67 392.06 423.67 390.3 421.91 390.3 421.91 390.3 418.4 390.3 414.89 390.3 411.38 390.3 407.86 390.3 404.35 390.3 400.84 390.3 399.08 390.3 399.08 392.06 400.84 393.81 399.08 393.81 397.32 393.81 393.81 393.81 392.06 393.81 388.54 395.57 385.03 395.57 383.27 397.32 381.52 397.32 379.76 399.08 379.76 400.84 376.25 406.11 376.25 409.62 374.49 409.62 376.25 409.62 379.76 407.86 379.76 406.11 379.76 407.86 378 414.89 376.25 421.91 376.25 421.91 376.25 423.67 376.25 425.43 376.25 427.18 378 432.45 378 434.21 379.76 435.96 379.76 437.72 381.52 439.48 383.27 437.72 385.03 437.72 386.79 435.96 388.54 434.21 388.54 430.7 388.54 428.94 388.54 427.18 388.54 425.43 388.54 423.67 386.79 418.4 386.79 416.64 385.03 414.89 386.79 411.38 386.79 409.62 388.54 406.11 388.54 404.35 390.3 404.35 392.06 402.59 393.81 400.84 393.81 399.08 395.57 397.32 395.57 397.32 397.32 397.32 399.08 397.32 402.59 399.08 404.35 399.08 406.11 400.84 407.86 404.35 407.86 406.11 407.86 407.86 406.11 409.62 406.11 411.38 404.35 413.13 404.35 414.89 404.35 416.64 406.11 414.89 407.86 413.13 409.62 411.38 411.38 411.38 411.38 411.38 413.13 413.13 416.64 420.16 416.64 420.16"/>
  <polygon class="cls-1" points="441.24 418.4 441.24 420.16 439.48 421.91 437.72 423.67 435.96 423.67 430.7 428.94 425.43 432.45 425.43 434.21 423.67 434.21 421.91 434.21 420.16 435.96 418.4 435.96 414.89 435.96 413.13 435.96 413.13 435.96 411.38 434.21 409.62 434.21 411.38 432.45 413.13 432.45 414.89 430.7 416.64 430.7 418.4 430.7 420.16 428.94 421.91 427.18 421.91 425.43 421.91 425.43 423.67 423.67 423.67 423.67 425.43 423.67 428.94 421.91 430.7 421.91 430.7 421.91 432.45 420.16 434.21 420.16 434.21 418.4 441.24 418.4 441.24 418.4"/>
  <polygon class="cls-1" points="439.48 414.89 439.48 414.89 437.72 414.89 435.96 414.89 434.21 414.89 434.21 414.89 435.96 413.13 435.96 411.38 437.72 409.62 439.48 409.62 444.75 406.11 446.5 404.35 448.26 404.35 450.02 404.35 451.77 404.35 451.77 404.35 453.53 402.59 453.53 400.84 455.29 400.84 457.04 399.08 457.04 399.08 457.04 399.08 457.04 402.59 457.04 404.35 458.8 406.11 458.8 407.86 458.8 407.86 455.29 409.62 453.53 411.38 451.77 411.38 448.26 411.38 444.75 413.13 442.99 413.13 441.24 413.13 439.48 413.13 439.48 414.89 439.48 414.89"/>
  <polygon class="cls-1" points="360.44 378 362.2 374.49 363.95 372.73 367.46 370.98 369.22 369.22 369.22 369.22 370.98 367.46 370.98 365.71 370.98 367.46 376.25 367.46 378 367.46 379.76 367.46 381.52 367.46 383.27 370.98 383.27 370.98 383.27 372.73 385.03 372.73 385.03 374.49 386.79 376.25 388.54 374.49 390.3 374.49 392.06 374.49 392.06 376.25 392.06 378 393.81 379.76 395.57 379.76 395.57 381.52 393.81 383.27 395.57 385.03 395.57 386.79 395.57 386.79 397.32 388.54 395.57 388.54 393.81 388.54 393.81 388.54 393.81 386.79 392.06 386.79 392.06 386.79 390.3 386.79 388.54 386.79 386.79 388.54 385.03 390.3 383.27 392.06 381.52 392.06 378 392.06 378 392.06 376.25 390.3 374.49 388.54 374.49 388.54 372.73 388.54 370.98 388.54 370.98 388.54 370.98 386.79 370.98 385.03 370.98 385.03 372.73 383.27 374.49 381.52 372.73 381.52 372.73 381.52 370.98 381.52 369.22 383.27 367.46 385.03 365.71 386.79 363.95 388.54 362.2 388.54 360.44 390.3 358.68 390.3 356.93 392.06 356.93 392.06 355.17 392.06 355.17 388.54 353.41 388.54 351.66 388.54 349.9 390.3 348.14 392.06 346.39 392.06 346.39 390.3 349.9 386.79 351.66 385.03 353.41 383.27 353.41 381.52 355.17 379.76 358.68 378 360.44 378 360.44 378"/>
  <polygon class="cls-1" points="212.9 165.48 221.68 168.99 223.44 168.99 225.2 168.99 225.2 170.75 226.95 174.26 226.95 174.26 226.95 174.26 223.44 174.26 219.93 174.26 219.93 174.26 218.17 176.02 216.41 177.77 214.66 179.53 214.66 179.53 216.41 179.53 218.17 181.29 219.93 181.29 219.93 183.04 221.68 181.29 221.68 179.53 223.44 179.53 223.44 179.53 225.2 177.77 226.95 177.77 226.95 179.53 225.2 181.29 223.44 183.04 223.44 184.8 223.44 184.8 223.44 184.8 225.2 184.8 228.71 183.04 230.47 183.04 230.47 181.29 230.47 179.53 230.47 177.77 230.47 177.77 233.98 181.29 235.73 181.29 237.49 181.29 239.25 176.02 241 176.02 241 176.02 239.25 174.26 237.49 174.26 235.73 174.26 233.98 172.5 232.22 172.5 230.47 170.75 230.47 170.75 232.22 170.75 237.49 168.99 237.49 168.99 237.49 168.99 235.73 167.23 235.73 165.48 233.98 165.48 230.47 165.48 228.71 167.23 225.2 167.23 221.68 165.48 216.41 165.48 212.9 165.48 212.9 165.48"/>
  <polygon class="cls-1" points="225.2 226.95 226.95 230.47 228.71 232.22 230.47 232.22 232.22 232.22 233.98 232.22 235.73 232.22 237.49 233.98 237.49 233.98 239.25 233.98 239.25 232.22 239.25 230.47 241 230.47 246.27 230.47 248.03 230.47 249.79 228.71 251.54 225.2 253.3 225.2 255.06 225.2 255.06 225.2 258.57 225.2 260.32 225.2 260.32 225.2 260.32 225.2 260.32 223.44 260.32 221.68 260.32 221.68 263.84 223.44 263.84 223.44 263.84 223.44 263.84 223.44 262.08 221.68 258.57 219.93 255.06 219.93 253.3 219.93 251.54 221.68 249.79 223.44 248.03 225.2 246.27 225.2 244.52 225.2 242.76 223.44 242.76 221.68 242.76 219.93 241 219.93 239.25 218.17 237.49 218.17 237.49 218.17 237.49 218.17 237.49 223.44 237.49 225.2 237.49 225.2 235.73 225.2 233.98 225.2 233.98 226.95 232.22 226.95 230.47 228.71 230.47 228.71 228.71 228.71 225.2 226.95 225.2 226.95"/>
  <polygon class="cls-1" points="244.52 260.32 248.03 262.08 249.79 262.08 249.79 262.08 249.79 260.32 251.54 258.57 253.3 258.57 255.06 258.57 255.06 258.57 258.57 258.57 260.32 260.32 263.84 258.57 265.59 258.57 265.59 258.57 263.84 256.81 262.08 256.81 260.32 256.81 260.32 255.06 258.57 255.06 256.81 253.3 255.06 253.3 255.06 251.54 253.3 253.3 253.3 255.06 251.54 255.06 249.79 256.81 248.03 258.57 246.27 258.57 244.52 260.32 244.52 260.32"/>
  <polygon class="cls-1" points="283.16 291.94 286.67 290.18 288.43 290.18 288.43 288.43 288.43 283.16 288.43 281.4 290.18 281.4 291.94 279.64 291.94 279.64 291.94 277.89 290.18 274.38 290.18 274.38 290.18 274.38 286.67 277.89 286.67 279.64 284.91 281.4 286.67 283.16 286.67 284.91 284.91 286.67 283.16 291.94 283.16 291.94"/>
  <polygon class="cls-1" points="302.48 323.56 304.23 330.58 304.23 330.58 304.23 332.34 305.99 334.09 307.75 335.85 307.75 337.61 307.75 337.61 307.75 337.61 311.26 339.36 311.26 339.36 311.26 339.36 311.26 342.88 311.26 344.63 313.02 342.88 314.77 342.88 314.77 342.88 314.77 342.88 314.77 344.63 314.77 351.66 313.02 353.41 313.02 355.17 314.77 355.17 316.53 353.41 318.29 353.41 318.29 351.66 318.29 348.14 318.29 346.39 318.29 344.63 318.29 344.63 314.77 339.36 314.77 335.85 313.02 332.34 313.02 330.58 311.26 327.07 311.26 323.56 309.5 321.8 309.5 320.04 304.23 320.04 304.23 320.04 302.48 320.04 302.48 323.56 302.48 323.56"/>
  <polygon class="cls-1" points="290.18 325.31 291.94 328.82 291.94 330.58 291.94 330.58 293.7 328.82 293.7 328.82 295.45 328.82 295.45 330.58 297.21 330.58 295.45 332.34 295.45 332.34 295.45 334.09 295.45 335.85 295.45 337.61 295.45 339.36 300.72 344.63 302.48 346.39 302.48 346.39 302.48 349.9 302.48 349.9 304.23 351.66 302.48 355.17 302.48 355.17 304.23 355.17 305.99 355.17 307.75 355.17 307.75 355.17 305.99 353.41 304.23 348.14 302.48 344.63 302.48 342.88 304.23 341.12 304.23 341.12 302.48 341.12 300.72 339.36 298.96 341.12 297.21 341.12 297.21 339.36 297.21 337.61 297.21 335.85 298.96 334.09 298.96 332.34 298.96 330.58 298.96 328.82 297.21 328.82 297.21 327.07 295.45 325.31 293.7 325.31 290.18 325.31 290.18 325.31"/>
  <polygon class="cls-1" points="611.61 783.74 611.61 197.09 611.61 49.55 611.61 12.67 611.61 3.89 611.61 2.13 611.61 0.38 611.61 0.38 608.09 0.38 595.8 0.38 546.62 0.38 351.66 0.38 88.2 0.38 23.21 0.38 5.64 0.38 2.13 0.38 0.38 0.38 0.38 3.89 0.38 10.91 0.38 39.02 0.38 154.94 0.38 613.36 0.38 741.58 0.38 773.2 0.38 781.98 0.38 783.74 0.38 783.74 2.13 783.74 3.89 783.74 10.91 783.74 39.02 783.74 153.18 783.74 611.61 783.74 611.61 783.74"/>
</svg>
